<svg xmlns="http://www.w3.org/2000/svg" viewBox="0 0 120 60"><defs><style>.cls-1{fill:#39b54a;}.cls-2{fill:#8cc63f;}.cls-3{fill:#fff;}.cls-4{fill:#e6e6e6;}</style></defs><title>NPK_Logo</title><g id="Laag_2" data-name="Laag 2"><g id="Laag_1-2" data-name="Laag 1"><polygon class="cls-1" points="116.53 6.53 2.75 52.75 0 50 0 10 10 0 110 0 116.53 6.53"/><polygon class="cls-2" points="120 10 120 50 110 60 10 60 2.75 52.75 116.53 6.53 120 10"/><polygon class="cls-3" points="21.91 44.97 21.91 49.06 12.14 49.06 12.14 48.94 21.91 44.97"/><polygon class="cls-3" points="41.44 37.04 41.44 49.06 31.67 49.06 31.67 41.01 41.44 37.04"/><polygon class="cls-3" points="74.64 23.55 74.64 24.65 64.87 34.41 55.11 34.41 55.11 49.06 45.34 49.06 45.34 35.46 74.64 23.55"/><polygon class="cls-3" points="107.84 24.65 102.96 29.53 107.84 34.41 107.84 49.06 98.08 49.06 98.08 34.41 88.31 34.41 88.31 49.06 78.55 49.06 78.55 21.96 88.31 18 88.31 24.65 98.08 24.65 98.08 14.03 107.84 10.07 107.84 24.65"/><polygon class="cls-4" points="41.44 10 41.44 37.04 31.67 41.01 31.67 34.41 21.91 24.65 21.91 44.97 12.14 48.94 12.14 10 21.91 10 31.67 19.77 31.67 10 41.44 10"/><path class="cls-4" d="M45.34,10V35.46l29.3-11.91V10ZM64.87,24.65H55.11V19.77h9.76Z"/><polygon class="cls-4" points="88.31 10 88.31 18 78.55 21.96 78.55 10 88.31 10"/><polygon class="cls-4" points="107.84 10 107.84 10.07 98.08 14.03 98.08 10 107.84 10"/></g></g></svg>