<svg xmlns="http://www.w3.org/2000/svg" viewBox="0 0 242.05 52.08"><defs><style>.cls-1{fill:#eb8f4f;stroke:#eb8f4f;}.cls-1,.cls-2,.cls-3,.cls-4,.cls-5{stroke-miterlimit:10;}.cls-2{fill:#e9833b;stroke:#e9833b;}.cls-3{fill:#e77728;stroke:#e77728;}.cls-4{fill:#d26d25;stroke:#d26d25;}.cls-5{fill:#be6221;stroke:#be6221;}</style></defs><title>OYSIM_logo</title><g id="Laag_2" data-name="Laag 2"><g id="Laag_1-2" data-name="Laag 1"><path class="cls-1" d="M.5,26.07Q.5,14,7.2,7.24T25.85.5Q38.11.5,44.74,7.12t6.63,18.55q0,8.66-2.9,14.2a20.69,20.69,0,0,1-8.37,8.62q-5.48,3.09-13.65,3.09c-5.53,0-10.12-.89-13.74-2.66a20.84,20.84,0,0,1-8.83-8.43Q.5,34.73.5,26.07Zm15.17.07q0,7.49,2.76,10.75A9.33,9.33,0,0,0,26,40.16,9.34,9.34,0,0,0,33.52,37q2.68-3.21,2.68-11.49,0-7-2.8-10.2a9.53,9.53,0,0,0-7.58-3.21,9.21,9.21,0,0,0-7.37,3.26Q15.68,18.59,15.67,26.14Z"/><path class="cls-2" d="M49.93,1.34H66.78L76.67,18,86.58,1.34h16.76L84.25,30.05V50.73H69.05V30.05Z"/><path class="cls-3" d="M108.06,1.34H128l7.7,30.06,7.64-30.06h19.94V50.73H150.86V13.07l-9.57,37.66H130l-9.55-37.66V50.73H108.06Z"/><path class="cls-4" d="M173.57,1.34h15.2V50.73h-15.2Z"/><path class="cls-5" d="M197,34.39l14.43-.91a11.14,11.14,0,0,0,1.91,5.4,8,8,0,0,0,6.7,3,7.38,7.38,0,0,0,5-1.53,4.42,4.42,0,0,0,.09-7c-1.12-1-3.71-2-7.77-2.86q-10-2.26-14.23-6A12.08,12.08,0,0,1,198.85,15,13,13,0,0,1,201,7.76a14.51,14.51,0,0,1,6.6-5.32Q212.05.5,219.71.5,229.13.5,234.06,4t5.88,11.2l-14.3.85a7.79,7.79,0,0,0-2.39-4.86,7.67,7.67,0,0,0-5-1.51,6,6,0,0,0-4,1.13,3.46,3.46,0,0,0-1.34,2.74A2.76,2.76,0,0,0,214,15.7q1.06,1,5.09,1.81,9.94,2.16,14.25,4.37a15.05,15.05,0,0,1,6.26,5.47,14,14,0,0,1,2,7.31,15.65,15.65,0,0,1-2.62,8.76,16.28,16.28,0,0,1-7.3,6.08,29.14,29.14,0,0,1-11.82,2.08q-12.52,0-17.34-4.86A19.12,19.12,0,0,1,197,34.39Z"/></g></g></svg>