<svg xmlns="http://www.w3.org/2000/svg" viewBox="0 0 31 38.14"><defs><style>.cls-1{fill:red;}.cls-2{fill:#fff;}.cls-3{isolation:isolate;}</style></defs><title>back_icon</title><g id="Laag_2" data-name="Laag 2"><g id="Laag_1-2" data-name="Laag 1"><g id="Group_17" data-name="Group 17"><g id="Group_15" data-name="Group 15"><path id="left-arrow" class="cls-1" d="M12.87,0,0,12.85,12.86,25.71l1.52-1.51L4.1,13.93H30V11.79H4.1L14.38,1.51Z"/><path id="left-arrow_1_2" data-name="left-arrow 1 2" class="cls-2" d="M13.87,0,1,12.85,13.86,25.71l1.52-1.51L5.1,13.93H31V11.79H5.1L15.38,1.51Z"/></g><g id="Group_16" data-name="Group 16"><g id="back" class="cls-3"><g class="cls-3"><path class="cls-1" d="M2.8,28.93H4.6v3.86h0a1.62,1.62,0,0,1,.8-.59A3,3,0,0,1,6.48,32a2.39,2.39,0,0,1,1.11.26,2.55,2.55,0,0,1,.84.69A3.34,3.34,0,0,1,9,34a3.5,3.5,0,0,1,.19,1.17,3.57,3.57,0,0,1-.2,1.21,2.77,2.77,0,0,1-.59,1,2.59,2.59,0,0,1-.9.62,3,3,0,0,1-1.18.22,1.91,1.91,0,0,1-.59-.08,2.91,2.91,0,0,1-.51-.22,1.71,1.71,0,0,1-.4-.29,2.1,2.1,0,0,1-.29-.32h0V38H2.8Zm1.66,6.15a1.52,1.52,0,0,0,.38,1.07,1.37,1.37,0,0,0,1.06.41A1.37,1.37,0,0,0,7,36.15a1.52,1.52,0,0,0,.38-1.07A1.5,1.5,0,0,0,7,34a1.34,1.34,0,0,0-1.06-.41A1.34,1.34,0,0,0,4.84,34,1.5,1.5,0,0,0,4.46,35.08Z"/><path class="cls-1" d="M13.86,37.27h0a1.69,1.69,0,0,1-.8.67,2.65,2.65,0,0,1-1,.2A2.54,2.54,0,0,1,11.2,38a2.12,2.12,0,0,1-.67-.34,1.59,1.59,0,0,1-.45-.57,1.6,1.6,0,0,1-.17-.78,1.84,1.84,0,0,1,.18-.85,1.75,1.75,0,0,1,.51-.57,2.43,2.43,0,0,1,.72-.36,6.11,6.11,0,0,1,.85-.18,8.46,8.46,0,0,1,.88-.08h.81a.94.94,0,0,0-.35-.76,1.19,1.19,0,0,0-.81-.28,1.85,1.85,0,0,0-.81.18,2.44,2.44,0,0,0-.65.51l-1-1a3.28,3.28,0,0,1,1.18-.7A4.06,4.06,0,0,1,12.85,32a3.66,3.66,0,0,1,1.3.2,2,2,0,0,1,.82.58,2.3,2.3,0,0,1,.42,1A6.16,6.16,0,0,1,15.51,35v3H13.86Zm-.45-1.83-.51,0a2.91,2.91,0,0,0-.59.1,1.4,1.4,0,0,0-.48.26.56.56,0,0,0-.19.46.51.51,0,0,0,.27.48,1.13,1.13,0,0,0,.58.16,1.79,1.79,0,0,0,.51-.07,1.63,1.63,0,0,0,.44-.21,1,1,0,0,0,.42-.81v-.39Z"/><path class="cls-1" d="M20.59,34.05a1.06,1.06,0,0,0-.37-.32,1.17,1.17,0,0,0-.52-.12,1.34,1.34,0,0,0-1.06.41,1.5,1.5,0,0,0-.38,1.06,1.52,1.52,0,0,0,.38,1.07,1.37,1.37,0,0,0,1.06.41,1,1,0,0,0,.52-.13,1.85,1.85,0,0,0,.37-.31l1.19,1.24a2.32,2.32,0,0,1-1,.61,3.62,3.62,0,0,1-1.09.17,3.8,3.8,0,0,1-1.27-.21,3.15,3.15,0,0,1-1-.62,3,3,0,0,1-.69-1,3,3,0,0,1-.25-1.26,2.91,2.91,0,0,1,.94-2.22,3,3,0,0,1,1-.62A3.81,3.81,0,0,1,19.7,32a3.65,3.65,0,0,1,1.09.18,2.3,2.3,0,0,1,1,.6Z"/><path class="cls-1" d="M22.42,28.93h1.8v5.54l2-2.3h2.2L26.11,34.8,28.48,38H26.22l-2-3h0v3h-1.8Z"/></g></g><g id="back-2" class="cls-3"><g class="cls-3"><path class="cls-2" d="M3.8,28.93H5.6v3.86h0a1.62,1.62,0,0,1,.8-.59A3,3,0,0,1,7.48,32a2.39,2.39,0,0,1,1.11.26,2.55,2.55,0,0,1,.84.69A3.34,3.34,0,0,1,10,34a3.5,3.5,0,0,1,.19,1.17,3.57,3.57,0,0,1-.2,1.21,2.77,2.77,0,0,1-.59,1,2.59,2.59,0,0,1-.9.62,3,3,0,0,1-1.18.22,1.91,1.91,0,0,1-.59-.08,2.91,2.91,0,0,1-.51-.22,1.71,1.71,0,0,1-.4-.29,2.1,2.1,0,0,1-.29-.32h0V38H3.8Zm1.66,6.15a1.52,1.52,0,0,0,.38,1.07,1.37,1.37,0,0,0,1.06.41A1.37,1.37,0,0,0,8,36.15a1.52,1.52,0,0,0,.38-1.07A1.5,1.5,0,0,0,8,34a1.34,1.34,0,0,0-1.06-.41A1.34,1.34,0,0,0,5.84,34,1.5,1.5,0,0,0,5.46,35.08Z"/><path class="cls-2" d="M14.86,37.27h0a1.69,1.69,0,0,1-.8.67,2.65,2.65,0,0,1-1,.2A2.54,2.54,0,0,1,12.2,38a2.12,2.12,0,0,1-.67-.34,1.59,1.59,0,0,1-.45-.57,1.6,1.6,0,0,1-.17-.78,1.84,1.84,0,0,1,.18-.85,1.75,1.75,0,0,1,.51-.57,2.43,2.43,0,0,1,.72-.36,6.11,6.11,0,0,1,.85-.18,8.46,8.46,0,0,1,.88-.08h.81a.94.94,0,0,0-.35-.76,1.19,1.19,0,0,0-.81-.28,1.85,1.85,0,0,0-.81.18,2.44,2.44,0,0,0-.65.51l-1-1a3.28,3.28,0,0,1,1.18-.7A4.06,4.06,0,0,1,13.85,32a3.66,3.66,0,0,1,1.3.2,2,2,0,0,1,.82.58,2.3,2.3,0,0,1,.42,1A6.16,6.16,0,0,1,16.51,35v3H14.86Zm-.45-1.83-.51,0a2.91,2.91,0,0,0-.59.1,1.4,1.4,0,0,0-.48.26.56.56,0,0,0-.19.46.51.51,0,0,0,.27.48,1.13,1.13,0,0,0,.58.16,1.79,1.79,0,0,0,.51-.07,1.63,1.63,0,0,0,.44-.21,1,1,0,0,0,.42-.81v-.39Z"/><path class="cls-2" d="M21.59,34.05a1.06,1.06,0,0,0-.37-.32,1.17,1.17,0,0,0-.52-.12,1.34,1.34,0,0,0-1.06.41,1.5,1.5,0,0,0-.38,1.06,1.52,1.52,0,0,0,.38,1.07,1.37,1.37,0,0,0,1.06.41,1,1,0,0,0,.52-.13,1.85,1.85,0,0,0,.37-.31l1.19,1.24a2.32,2.32,0,0,1-1,.61,3.62,3.62,0,0,1-1.09.17,3.8,3.8,0,0,1-1.27-.21,3.15,3.15,0,0,1-1-.62,3,3,0,0,1-.69-1,3,3,0,0,1-.25-1.26,2.91,2.91,0,0,1,.94-2.22,3,3,0,0,1,1-.62A3.81,3.81,0,0,1,20.7,32a3.65,3.65,0,0,1,1.09.18,2.3,2.3,0,0,1,1,.6Z"/><path class="cls-2" d="M23.42,28.93h1.8v5.54l2-2.3h2.2L27.11,34.8,29.48,38H27.22l-2-3h0v3h-1.8Z"/></g></g></g></g></g></g></svg>