<svg xmlns="http://www.w3.org/2000/svg" viewBox="0 0 32 41.14"><defs><style>.cls-1{isolation:isolate;}.cls-2{fill:red;}.cls-3{fill:#fff;}</style></defs><title>close_icon</title><g id="Laag_2" data-name="Laag 2"><g id="Laag_1-2" data-name="Laag 1"><g id="Group_20" data-name="Group 20"><g id="close" class="cls-1"><g class="cls-1"><path class="cls-2" d="M5.58,37.05a1,1,0,0,0-.37-.32,1.13,1.13,0,0,0-.51-.12A1.37,1.37,0,0,0,3.63,37a1.49,1.49,0,0,0-.37,1.06,1.52,1.52,0,0,0,.37,1.07,1.41,1.41,0,0,0,1.07.41.92.92,0,0,0,.51-.13,1.42,1.42,0,0,0,.37-.31l1.19,1.24a2.32,2.32,0,0,1-1,.61,3.56,3.56,0,0,1-1.08.17,3.8,3.8,0,0,1-1.27-.21,3,3,0,0,1-1-.62,3,3,0,0,1-.69-1,3,3,0,0,1-.25-1.26,3,3,0,0,1,.25-1.26,3,3,0,0,1,.69-1,2.9,2.9,0,0,1,1-.62A3.81,3.81,0,0,1,4.7,35a3.59,3.59,0,0,1,1.08.18,2.3,2.3,0,0,1,1,.6Z"/><path class="cls-2" d="M7.44,31.93h1.8V41H7.44Z"/><path class="cls-2" d="M10.32,38.08a3.05,3.05,0,0,1,.26-1.26,2.74,2.74,0,0,1,.69-1,2.9,2.9,0,0,1,1-.62A3.75,3.75,0,0,1,13.56,35a3.81,3.81,0,0,1,1.27.22,2.9,2.9,0,0,1,1,.62,2.91,2.91,0,0,1,.94,2.22,3,3,0,0,1-.25,1.26,3,3,0,0,1-.69,1,3,3,0,0,1-1,.62,3.8,3.8,0,0,1-1.27.21,3.74,3.74,0,0,1-1.26-.21,3,3,0,0,1-1-.62,2.69,2.69,0,0,1-.69-1A3,3,0,0,1,10.32,38.08Zm1.8,0a1.52,1.52,0,0,0,.38,1.07,1.39,1.39,0,0,0,1.06.41,1.41,1.41,0,0,0,1.07-.41A1.52,1.52,0,0,0,15,38.08,1.49,1.49,0,0,0,14.63,37a1.37,1.37,0,0,0-1.07-.41A1.35,1.35,0,0,0,12.5,37,1.5,1.5,0,0,0,12.12,38.08Z"/><path class="cls-2" d="M21.16,36.88a1.28,1.28,0,0,0-1-.49,1,1,0,0,0-.45.11.38.38,0,0,0-.21.37.33.33,0,0,0,.22.32,2.64,2.64,0,0,0,.56.18l.73.17a2.76,2.76,0,0,1,.74.28,1.74,1.74,0,0,1,.56.52,1.55,1.55,0,0,1,.22.88,1.65,1.65,0,0,1-.24.93,2,2,0,0,1-.63.59,2.73,2.73,0,0,1-.87.31,5.09,5.09,0,0,1-.95.09A4.39,4.39,0,0,1,18.57,41a2.32,2.32,0,0,1-1.06-.62l1.09-1.21a1.74,1.74,0,0,0,.56.47,1.5,1.5,0,0,0,.72.17,1.69,1.69,0,0,0,.56-.09.33.33,0,0,0,.25-.33.37.37,0,0,0-.22-.35,2.81,2.81,0,0,0-.56-.19l-.74-.17a3,3,0,0,1-.73-.27A1.44,1.44,0,0,1,17.66,37a1.8,1.8,0,0,1,.21-.89,1.89,1.89,0,0,1,.55-.61,2.3,2.3,0,0,1,.78-.35,3.48,3.48,0,0,1,.9-.12,4.3,4.3,0,0,1,1.17.17,2.11,2.11,0,0,1,1,.6Z"/><path class="cls-2" d="M28.94,40a2.89,2.89,0,0,1-1.1.85,3.24,3.24,0,0,1-1.36.3,3.8,3.8,0,0,1-1.27-.21,3,3,0,0,1-1-.62,3,3,0,0,1-.69-1,3,3,0,0,1-.25-1.26,2.91,2.91,0,0,1,.94-2.22,2.9,2.9,0,0,1,1-.62A3.81,3.81,0,0,1,26.48,35a3,3,0,0,1,1.13.22,2.24,2.24,0,0,1,.86.62,2.84,2.84,0,0,1,.55,1,3.87,3.87,0,0,1,.19,1.26v.57H25a1.4,1.4,0,0,0,.46.82,1.46,1.46,0,0,0,1.64.11,2,2,0,0,0,.54-.51Zm-1.53-2.57a1,1,0,0,0-.3-.78,1.08,1.08,0,0,0-.8-.32,1.25,1.25,0,0,0-.53.1,1.28,1.28,0,0,0-.39.24,1.07,1.07,0,0,0-.25.35,1,1,0,0,0-.1.41Z"/></g></g><g id="close-2" class="cls-1"><g class="cls-1"><path class="cls-3" d="M6.58,37.05a1,1,0,0,0-.37-.32,1.13,1.13,0,0,0-.51-.12A1.37,1.37,0,0,0,4.63,37a1.49,1.49,0,0,0-.37,1.06,1.52,1.52,0,0,0,.37,1.07,1.41,1.41,0,0,0,1.07.41.92.92,0,0,0,.51-.13,1.42,1.42,0,0,0,.37-.31l1.19,1.24a2.32,2.32,0,0,1-1,.61,3.56,3.56,0,0,1-1.08.17,3.8,3.8,0,0,1-1.27-.21,3,3,0,0,1-1-.62,3,3,0,0,1-.69-1,3,3,0,0,1-.25-1.26,2.91,2.91,0,0,1,.94-2.22,2.9,2.9,0,0,1,1-.62A3.81,3.81,0,0,1,5.7,35a3.59,3.59,0,0,1,1.08.18,2.3,2.3,0,0,1,1,.6Z"/><path class="cls-3" d="M8.44,31.93h1.8V41H8.44Z"/><path class="cls-3" d="M11.32,38.08a3.05,3.05,0,0,1,.26-1.26,2.74,2.74,0,0,1,.69-1,2.9,2.9,0,0,1,1-.62A3.75,3.75,0,0,1,14.56,35a3.81,3.81,0,0,1,1.27.22,2.9,2.9,0,0,1,1,.62,2.91,2.91,0,0,1,.94,2.22,3,3,0,0,1-.25,1.26,3,3,0,0,1-.69,1,3,3,0,0,1-1,.62,3.8,3.8,0,0,1-1.27.21,3.74,3.74,0,0,1-1.26-.21,3,3,0,0,1-1-.62,2.69,2.69,0,0,1-.69-1A3,3,0,0,1,11.32,38.08Zm1.8,0a1.52,1.52,0,0,0,.38,1.07,1.39,1.39,0,0,0,1.06.41,1.41,1.41,0,0,0,1.07-.41A1.52,1.52,0,0,0,16,38.08,1.49,1.49,0,0,0,15.63,37a1.37,1.37,0,0,0-1.07-.41A1.35,1.35,0,0,0,13.5,37,1.5,1.5,0,0,0,13.12,38.08Z"/><path class="cls-3" d="M22.16,36.88a1.28,1.28,0,0,0-1-.49,1,1,0,0,0-.45.11.38.38,0,0,0-.21.37.33.33,0,0,0,.22.32,2.64,2.64,0,0,0,.56.18l.73.17a2.76,2.76,0,0,1,.74.28,1.74,1.74,0,0,1,.56.52,1.55,1.55,0,0,1,.22.88,1.65,1.65,0,0,1-.24.93,2,2,0,0,1-.63.59,2.73,2.73,0,0,1-.87.31,5.09,5.09,0,0,1-.95.09A4.39,4.39,0,0,1,19.57,41a2.32,2.32,0,0,1-1.06-.62l1.09-1.21a1.74,1.74,0,0,0,.56.47,1.5,1.5,0,0,0,.72.17,1.69,1.69,0,0,0,.56-.09.33.33,0,0,0,.25-.33.37.37,0,0,0-.22-.35,2.81,2.81,0,0,0-.56-.19l-.74-.17a3,3,0,0,1-.73-.27A1.44,1.44,0,0,1,18.66,37a1.8,1.8,0,0,1,.21-.89,1.89,1.89,0,0,1,.55-.61,2.3,2.3,0,0,1,.78-.35,3.48,3.48,0,0,1,.9-.12,4.3,4.3,0,0,1,1.17.17,2.11,2.11,0,0,1,1,.6Z"/><path class="cls-3" d="M29.94,40a2.89,2.89,0,0,1-1.1.85,3.24,3.24,0,0,1-1.36.3,3.8,3.8,0,0,1-1.27-.21,3,3,0,0,1-1-.62,3,3,0,0,1-.69-1,3,3,0,0,1-.25-1.26,2.91,2.91,0,0,1,.94-2.22,2.9,2.9,0,0,1,1-.62A3.81,3.81,0,0,1,27.48,35a3,3,0,0,1,1.13.22,2.24,2.24,0,0,1,.86.62,2.84,2.84,0,0,1,.55,1,3.87,3.87,0,0,1,.19,1.26v.57H26a1.4,1.4,0,0,0,.46.82,1.46,1.46,0,0,0,1.64.11,2,2,0,0,0,.54-.51Zm-1.53-2.57a1,1,0,0,0-.3-.78,1.08,1.08,0,0,0-.8-.32,1.25,1.25,0,0,0-.53.1,1.28,1.28,0,0,0-.39.24,1.07,1.07,0,0,0-.25.35,1,1,0,0,0-.1.41Z"/></g></g></g><g id="Group_19" data-name="Group 19"><g id="cancel"><g id="Group_18" data-name="Group 18"><path id="Path_32" data-name="Path 32" class="cls-2" d="M31,2.4,28.6,0,15.5,13.1,2.4,0,0,2.4,13.1,15.5,0,28.6,2.4,31,15.5,17.9,28.6,31,31,28.6,17.9,15.5Z"/></g><g id="cancel-2"><g id="Group_18-2" data-name="Group 18-2"><path id="Path_32-2" data-name="Path 32-2" class="cls-3" d="M32,2.4,29.6,0,16.5,13.1,3.4,0,1,2.4,14.1,15.5,1,28.6,3.4,31,16.5,17.9,29.6,31,32,28.6,18.9,15.5Z"/></g></g></g></g></g></g></svg>