<svg xmlns="http://www.w3.org/2000/svg" viewBox="0 0 31.06 35.84"><defs><style>.cls-1,.cls-2{fill:none;stroke-width:3px;}.cls-1{stroke:red;}.cls-2{stroke:#fff;}.cls-3{isolation:isolate;}.cls-4{fill:red;}.cls-5{fill:#fff;}</style></defs><title>Middel 3</title><g id="Laag_2" data-name="Laag 2"><g id="Laag_1-2" data-name="Laag 1"><line id="Line_6" data-name="Line 6" class="cls-1" x1="0.06" y1="1.5" x2="30.06" y2="1.5"/><line id="Line_5" data-name="Line 5" class="cls-1" x1="0.06" y1="11.5" x2="30.06" y2="11.5"/><line id="Line_4" data-name="Line 4" class="cls-1" x1="0.06" y1="21.5" x2="30.06" y2="21.5"/><line id="Line_1" data-name="Line 1" class="cls-2" x1="1.06" y1="1.5" x2="31.06" y2="1.5"/><line id="Line_2" data-name="Line 2" class="cls-2" x1="1.06" y1="11.5" x2="31.06" y2="11.5"/><line id="Line_3" data-name="Line 3" class="cls-2" x1="1.06" y1="21.5" x2="31.06" y2="21.5"/><g id="menu" class="cls-3"><g class="cls-3"><path class="cls-4" d="M0,29.87H1.73v.79h0A1.72,1.72,0,0,1,2,30.33a1.52,1.52,0,0,1,.37-.3,2.29,2.29,0,0,1,.5-.22,1.9,1.9,0,0,1,.6-.08A2.24,2.24,0,0,1,4.54,30a1.59,1.59,0,0,1,.72.79A2,2,0,0,1,6,30a2.41,2.41,0,0,1,1.09-.23,2.21,2.21,0,0,1,1,.19,1.7,1.7,0,0,1,.64.54,2.28,2.28,0,0,1,.34.81,5.19,5.19,0,0,1,.1,1V35.7H7.37V32.3a1.33,1.33,0,0,0-.18-.7.65.65,0,0,0-.61-.29,1.19,1.19,0,0,0-.53.1.83.83,0,0,0-.33.28,1,1,0,0,0-.18.42,2.1,2.1,0,0,0-.06.51V35.7H3.68V32.62c0-.11,0-.24,0-.39a1.56,1.56,0,0,0-.08-.43.92.92,0,0,0-.24-.35.69.69,0,0,0-.47-.14,1,1,0,0,0-.56.13.75.75,0,0,0-.33.33,1.23,1.23,0,0,0-.15.48,3.24,3.24,0,0,0,0,.55v2.9H0Z"/><path class="cls-4" d="M16,34.69a2.76,2.76,0,0,1-1.09.85,3.14,3.14,0,0,1-1.37.3,3.8,3.8,0,0,1-1.27-.21,3,3,0,0,1-1-.62,3,3,0,0,1-.94-2.22,3,3,0,0,1,.25-1.26,3,3,0,0,1,.69-1,3,3,0,0,1,1-.62,3.8,3.8,0,0,1,1.27-.21,2.92,2.92,0,0,1,1.13.21,2.35,2.35,0,0,1,.87.62,2.77,2.77,0,0,1,.54,1,3.78,3.78,0,0,1,.2,1.26v.56H12.06a1.41,1.41,0,0,0,.47.82,1.29,1.29,0,0,0,.89.31,1.4,1.4,0,0,0,.75-.2,2,2,0,0,0,.53-.51Zm-1.52-2.56a1.13,1.13,0,0,0-.3-.79,1.1,1.1,0,0,0-.81-.32,1.37,1.37,0,0,0-.92.34,1.24,1.24,0,0,0-.25.35,1.18,1.18,0,0,0-.1.42Z"/><path class="cls-4" d="M17.33,29.87h1.73v.79h0a1.72,1.72,0,0,1,.24-.33,1.35,1.35,0,0,1,.37-.3,2.43,2.43,0,0,1,.49-.22,2,2,0,0,1,.6-.08,2.36,2.36,0,0,1,1.11.21,1.53,1.53,0,0,1,.65.58,2.38,2.38,0,0,1,.32.87,6.32,6.32,0,0,1,.08,1.1V35.7h-1.8V32.84c0-.16,0-.34,0-.52a1.85,1.85,0,0,0-.11-.49.82.82,0,0,0-.28-.38.88.88,0,0,0-.53-.14,1.09,1.09,0,0,0-.57.13.87.87,0,0,0-.33.33,1.69,1.69,0,0,0-.15.48,4.8,4.8,0,0,0,0,.55v2.9h-1.8Z"/><path class="cls-4" d="M29.83,35.7H28.1v-.79h0a2.25,2.25,0,0,1-.25.34,1.48,1.48,0,0,1-.36.29,2,2,0,0,1-1.09.3,2.36,2.36,0,0,1-1.11-.21,1.44,1.44,0,0,1-.66-.58,2.31,2.31,0,0,1-.32-.87,7.54,7.54,0,0,1-.07-1.1V29.87H26v2.86c0,.16,0,.34,0,.52a2,2,0,0,0,.11.5.85.85,0,0,0,.28.37.88.88,0,0,0,.53.14,1.09,1.09,0,0,0,.57-.13.87.87,0,0,0,.33-.33,1.73,1.73,0,0,0,.15-.47,5.12,5.12,0,0,0,0-.56v-2.9h1.8Z"/></g></g><g id="menu-2" class="cls-3"><g class="cls-3"><path class="cls-5" d="M1,29.87H2.73v.79h0A1.72,1.72,0,0,1,3,30.33a1.52,1.52,0,0,1,.37-.3,2.29,2.29,0,0,1,.5-.22,1.9,1.9,0,0,1,.6-.08A2.24,2.24,0,0,1,5.54,30a1.59,1.59,0,0,1,.72.79A2,2,0,0,1,7,30a2.41,2.41,0,0,1,1.09-.23,2.21,2.21,0,0,1,1,.19,1.7,1.7,0,0,1,.64.54,2.28,2.28,0,0,1,.34.81,5.19,5.19,0,0,1,.1,1V35.7H8.37V32.3a1.33,1.33,0,0,0-.18-.7.65.65,0,0,0-.61-.29,1.19,1.19,0,0,0-.53.1.83.83,0,0,0-.33.28,1,1,0,0,0-.18.42,2.1,2.1,0,0,0-.06.51V35.7H4.68V32.62c0-.11,0-.24,0-.39a1.56,1.56,0,0,0-.08-.43.92.92,0,0,0-.24-.35.69.69,0,0,0-.47-.14,1,1,0,0,0-.56.13.75.75,0,0,0-.33.33,1.23,1.23,0,0,0-.15.48,3.24,3.24,0,0,0,0,.55v2.9H1Z"/><path class="cls-5" d="M17,34.69a2.76,2.76,0,0,1-1.09.85,3.14,3.14,0,0,1-1.37.3,3.8,3.8,0,0,1-1.27-.21,3,3,0,0,1-1-.62,3,3,0,0,1-.94-2.22,3,3,0,0,1,.25-1.26,3,3,0,0,1,.69-1,3,3,0,0,1,1-.62,3.8,3.8,0,0,1,1.27-.21,2.92,2.92,0,0,1,1.13.21,2.35,2.35,0,0,1,.87.62,2.77,2.77,0,0,1,.54,1,3.78,3.78,0,0,1,.2,1.26v.56H13.06a1.41,1.41,0,0,0,.47.82,1.29,1.29,0,0,0,.89.31,1.4,1.4,0,0,0,.75-.2,2,2,0,0,0,.53-.51Zm-1.52-2.56a1.13,1.13,0,0,0-.3-.79,1.1,1.1,0,0,0-.81-.32,1.37,1.37,0,0,0-.92.34,1.24,1.24,0,0,0-.25.35,1.18,1.18,0,0,0-.1.42Z"/><path class="cls-5" d="M18.33,29.87h1.73v.79h0a1.72,1.72,0,0,1,.24-.33,1.35,1.35,0,0,1,.37-.3,2.43,2.43,0,0,1,.49-.22,2,2,0,0,1,.6-.08,2.36,2.36,0,0,1,1.11.21,1.53,1.53,0,0,1,.65.58,2.38,2.38,0,0,1,.32.87,6.32,6.32,0,0,1,.08,1.1V35.7h-1.8V32.84c0-.16,0-.34,0-.52a1.85,1.85,0,0,0-.11-.49.82.82,0,0,0-.28-.38.88.88,0,0,0-.53-.14,1.09,1.09,0,0,0-.57.13.87.87,0,0,0-.33.33,1.69,1.69,0,0,0-.15.48,4.8,4.8,0,0,0,0,.55v2.9h-1.8Z"/><path class="cls-5" d="M30.83,35.7H29.1v-.79h0a2.25,2.25,0,0,1-.25.34,1.48,1.48,0,0,1-.36.29,2,2,0,0,1-1.09.3,2.36,2.36,0,0,1-1.11-.21,1.44,1.44,0,0,1-.66-.58,2.31,2.31,0,0,1-.32-.87,7.54,7.54,0,0,1-.07-1.1V29.87H27v2.86c0,.16,0,.34,0,.52a2,2,0,0,0,.11.5.85.85,0,0,0,.28.37.88.88,0,0,0,.53.14,1.09,1.09,0,0,0,.57-.13.87.87,0,0,0,.33-.33,1.73,1.73,0,0,0,.15-.47,5.12,5.12,0,0,0,0-.56v-2.9h1.8Z"/></g></g></g></g></svg>