<svg xmlns="http://www.w3.org/2000/svg" viewBox="0 0 22 22"><defs><style>.cls-1{fill:#25ae88;}.cls-2{fill:#fff;}</style></defs><title>Middel 4</title><g id="Laag_2" data-name="Laag 2"><g id="Laag_1-2" data-name="Laag 1"><g id="Group_2" data-name="Group 2"><circle id="Ellipse_8" data-name="Ellipse 8" class="cls-1" cx="11" cy="11" r="11"/><g id="telephone"><g id="Group_1" data-name="Group 1"><path id="Path_13" data-name="Path 13" class="cls-2" d="M14.12,12.94a.84.84,0,0,0-1.18-.09l-.09.09-.89.89a.16.16,0,0,1-.24,0h0c-.19-.1-.4-.19-.58-.3a9.33,9.33,0,0,1-2.23-2,5.41,5.41,0,0,1-.8-1.28A.19.19,0,0,1,8.16,10c.3-.29.59-.58.88-.88A.84.84,0,0,0,9.15,8L9,7.86l-.7-.7-.72-.72a.84.84,0,0,0-1.19-.07l-.08.07-.89.89a1.44,1.44,0,0,0-.46,1,4.35,4.35,0,0,0,.32,1.78,10.86,10.86,0,0,0,1.92,3.2,11.91,11.91,0,0,0,3.94,3.07,5.78,5.78,0,0,0,2.18.64,1.58,1.58,0,0,0,1.37-.53c.26-.28.55-.54.82-.81a.85.85,0,0,0,.09-1.2l-.09-.1Z"/><path id="Path_14" data-name="Path 14" class="cls-2" d="M13.65,11l.92-.16a4.14,4.14,0,0,0-3.5-3.39l-.13.92A3.23,3.23,0,0,1,13.65,11Z"/><path id="Path_15" data-name="Path 15" class="cls-2" d="M15.09,6.94A6.82,6.82,0,0,0,11.19,5l-.13.93a5.92,5.92,0,0,1,5,4.86l.92-.16A6.86,6.86,0,0,0,15.09,6.94Z"/></g></g></g></g></g></svg>