<svg xmlns="http://www.w3.org/2000/svg" viewBox="0 0 22 22"><defs><style>.cls-1{fill:#25ae88;}.cls-2{fill:#fff;}</style></defs><title>site_icon</title><g id="Laag_2" data-name="Laag 2"><g id="Laag_1-2" data-name="Laag 1"><g id="Group_4" data-name="Group 4"><g id="Group_3" data-name="Group 3"><circle id="Ellipse_8" data-name="Ellipse 8" class="cls-1" cx="11" cy="11" r="11"/></g><g id="global"><path id="Path_16" data-name="Path 16" class="cls-2" d="M11.21,17c.92-.13,1.73-1.09,2.23-2.5a10.46,10.46,0,0,0-2.23-.27Z"/><path id="Path_17" data-name="Path 17" class="cls-2" d="M12.68,16.75l.16-.05.14,0,.15-.06.14-.05.15-.07.13-.06.15-.07.13-.07.14-.07.13-.08.14-.08.12-.08.13-.1.12-.08.13-.1.12-.1.12-.11.11-.1.12-.11.1-.1,0,0a7.71,7.71,0,0,0-1.47-.57,5.22,5.22,0,0,1-1.37,2.23h0Z"/><path id="Path_18" data-name="Path 18" class="cls-2" d="M17,11.2H14.43a11.4,11.4,0,0,1-.43,3,7.32,7.32,0,0,1,1.62.65A6,6,0,0,0,17,11.2Z"/><path id="Path_19" data-name="Path 19" class="cls-2" d="M11.21,10.77H14a10.64,10.64,0,0,0-.42-2.86,11.8,11.8,0,0,1-2.37.28Z"/><path id="Path_20" data-name="Path 20" class="cls-2" d="M11.21,5V7.77a11.14,11.14,0,0,0,2.23-.27c-.5-1.41-1.31-2.37-2.23-2.5Z"/><path id="Path_21" data-name="Path 21" class="cls-2" d="M11.21,13.78a11.8,11.8,0,0,1,2.37.28A10.64,10.64,0,0,0,14,11.2H11.21Z"/><path id="Path_22" data-name="Path 22" class="cls-2" d="M15.62,7.16A7.32,7.32,0,0,1,14,7.81a11.39,11.39,0,0,1,.43,3H17a6,6,0,0,0-1.38-3.61Z"/><path id="Path_23" data-name="Path 23" class="cls-2" d="M15.33,6.83v0a.47.47,0,0,1-.1-.1l-.13-.11L15,6.5l-.13-.11-.11-.09-.13-.1-.12-.09L14.36,6l-.12-.08-.14-.09L14,5.77l-.15-.08-.13-.06-.15-.08-.13-.06-.15-.06-.14,0L13,5.32l-.14-.05-.16,0-.13,0-.06,0A5.28,5.28,0,0,1,13.86,7.4a6.66,6.66,0,0,0,1.48-.57Z"/><path id="Path_24" data-name="Path 24" class="cls-2" d="M5,10.77H7.57a11,11,0,0,1,.43-3,7.92,7.92,0,0,1-1.63-.65A6,6,0,0,0,5,10.77Z"/><path id="Path_25" data-name="Path 25" class="cls-2" d="M10.79,17V14.21a11.13,11.13,0,0,0-2.23.26C9.06,15.89,9.87,16.85,10.79,17Z"/><path id="Path_26" data-name="Path 26" class="cls-2" d="M10.79,11.2H8a10.77,10.77,0,0,0,.42,2.87,11.12,11.12,0,0,1,2.36-.29Z"/><path id="Path_27" data-name="Path 27" class="cls-2" d="M10.79,5c-.92.13-1.73,1.09-2.23,2.5a11.13,11.13,0,0,0,2.23.26Z"/><path id="Path_28" data-name="Path 28" class="cls-2" d="M10.79,8.19a11.12,11.12,0,0,1-2.37-.28A10.7,10.7,0,0,0,8,10.77h2.79Z"/><path id="Path_29" data-name="Path 29" class="cls-2" d="M9.51,5.17l-.06,0-.13,0-.16,0L9,5.32l-.15.06-.14,0-.15.07-.13.06-.15.07-.13.06L8,5.77l-.13.08-.14.08L7.64,6l-.13.1-.12.08-.13.1-.12.1L7,6.49l-.11.1-.12.12-.1.1,0,0a7.71,7.71,0,0,0,1.47.57A5.32,5.32,0,0,1,9.51,5.17Z"/><path id="Path_30" data-name="Path 30" class="cls-2" d="M6.79,15.26l.12.12.11.1a.69.69,0,0,0,.13.11l.11.09.13.1.12.09.13.1.12.08.14.09.13.07.14.08.13.06.15.08.13.06.16.06.13.05.16.06.13.05.16.05.14,0,0,0a5.32,5.32,0,0,1-1.37-2.23,7.71,7.71,0,0,0-1.47.57l0,0Z"/><path id="Path_31" data-name="Path 31" class="cls-2" d="M6.38,14.82A7.32,7.32,0,0,1,8,14.17a11,11,0,0,1-.43-3H5A6,6,0,0,0,6.38,14.82Z"/></g></g></g></g></svg>