<svg xmlns="http://www.w3.org/2000/svg" viewBox="0 0 167.84 20.4"><defs><style>.cls-1{isolation:isolate;}.cls-2{fill:red;}.cls-3{fill:#fff;}</style></defs><title>comparison</title><g id="Laag_2" data-name="Laag 2"><g id="Laag_1-2" data-name="Laag 1"><g id="COMPARISON" class="cls-1"><g class="cls-1"><path class="cls-2" d="M8.58,20.4a8.36,8.36,0,0,1-3.42-.69,7.84,7.84,0,0,1-2.72-2A9.16,9.16,0,0,1,.64,14.5,13.31,13.31,0,0,1,0,10.2,12.87,12.87,0,0,1,.66,5.94,9.49,9.49,0,0,1,2.49,2.73a7.83,7.83,0,0,1,2.76-2A8.49,8.49,0,0,1,8.73,0a6.56,6.56,0,0,1,3.16.74,8.28,8.28,0,0,1,2.24,1.69L12.78,4.05A6.41,6.41,0,0,0,11,2.7a4.84,4.84,0,0,0-2.25-.51,5.75,5.75,0,0,0-2.55.56A5.61,5.61,0,0,0,4.26,4.33,7.57,7.57,0,0,0,3,6.84a11.62,11.62,0,0,0-.43,3.3A11.94,11.94,0,0,0,3,13.49,8,8,0,0,0,4.23,16a5.36,5.36,0,0,0,1.9,1.62,5.55,5.55,0,0,0,2.54.57,5.33,5.33,0,0,0,2.52-.58,7.87,7.87,0,0,0,2-1.64l1.38,1.56A8.75,8.75,0,0,1,12,19.65,7.36,7.36,0,0,1,8.58,20.4Z"/><path class="cls-2" d="M24.66,20.4a8,8,0,0,1-3.41-.72,7.55,7.55,0,0,1-2.65-2.05,9.41,9.41,0,0,1-1.72-3.25,13.5,13.5,0,0,1-.62-4.27,13.27,13.27,0,0,1,.62-4.24A9.21,9.21,0,0,1,18.6,2.68a7.5,7.5,0,0,1,2.65-2A8.31,8.31,0,0,1,24.66,0a8.16,8.16,0,0,1,3.41.71,7.66,7.66,0,0,1,2.67,2A9.22,9.22,0,0,1,32.47,5.9a13.45,13.45,0,0,1,.62,4.21,13.8,13.8,0,0,1-.62,4.27,9.43,9.43,0,0,1-1.73,3.25,7.81,7.81,0,0,1-2.67,2.05A8,8,0,0,1,24.66,20.4Zm0-2.19A5,5,0,0,0,27,17.64,5.41,5.41,0,0,0,28.88,16a8.28,8.28,0,0,0,1.18-2.54,12.38,12.38,0,0,0,.42-3.35,12,12,0,0,0-.42-3.3,7.78,7.78,0,0,0-1.18-2.49A5.4,5.4,0,0,0,27,2.75a5.34,5.34,0,0,0-4.76,0,5.28,5.28,0,0,0-1.83,1.57,7.39,7.39,0,0,0-1.19,2.49,12,12,0,0,0-.42,3.3,12.38,12.38,0,0,0,.42,3.35A7.85,7.85,0,0,0,20.45,16a5.29,5.29,0,0,0,1.83,1.64A4.93,4.93,0,0,0,24.66,18.21Z"/><path class="cls-2" d="M37.32,20V.36h3l3.78,10.5c.24.68.47,1.36.7,2.06s.47,1.37.71,2.05h.12c.24-.68.46-1.36.67-2.05s.44-1.38.68-2.06L50.7.36h3V20H51.39V9.21q0-1.32.12-2.91t.21-2.91H51.6L50,7.86l-3.72,10.2H44.67L41,7.86,39.39,3.39h-.12c.06.88.12,1.85.19,2.91s.11,2,.11,2.91V20Z"/><path class="cls-2" d="M59.13,20V.36h5.61a14,14,0,0,1,3,.3,6.4,6.4,0,0,1,2.33,1,4.61,4.61,0,0,1,1.5,1.79,6.21,6.21,0,0,1,.54,2.73,6.41,6.41,0,0,1-.53,2.7,5,5,0,0,1-1.48,1.89,6.6,6.6,0,0,1-2.3,1.13,10.88,10.88,0,0,1-3,.37H61.62V20Zm2.49-9.84h2.94a6.09,6.09,0,0,0,3.82-1,3.64,3.64,0,0,0,1.25-3.07A3.21,3.21,0,0,0,68.32,3.2a7.34,7.34,0,0,0-3.88-.83H61.62Z"/><path class="cls-2" d="M72,20,78.66.36h2.82L88.14,20H85.47l-1.86-6H76.44l-1.89,6ZM78,9l-.93,3H83l-.93-3c-.36-1.1-.7-2.2-1-3.28s-.64-2.21-1-3.35H80c-.3,1.14-.61,2.26-.93,3.35S78.36,7.93,78,9Z"/><path class="cls-2" d="M90.93,20V.36h6.15a12.66,12.66,0,0,1,2.77.29,5.73,5.73,0,0,1,2.19.94,4.5,4.5,0,0,1,1.43,1.71A5.87,5.87,0,0,1,104,5.88a5.43,5.43,0,0,1-1.2,3.69,6.13,6.13,0,0,1-3.24,1.89l5,8.58h-2.82L97,11.73H93.42V20ZM93.42,9.69h3.3a5.72,5.72,0,0,0,3.54-.94,3.4,3.4,0,0,0,1.23-2.87,3,3,0,0,0-1.23-2.73,6.64,6.64,0,0,0-3.54-.78h-3.3Z"/><path class="cls-2" d="M108,20V.36h2.49V20Z"/><path class="cls-2" d="M121.35,20.4a9.44,9.44,0,0,1-6.9-2.91l1.5-1.74a8.38,8.38,0,0,0,2.47,1.79,6.84,6.84,0,0,0,3,.67,4.66,4.66,0,0,0,3-.88A2.87,2.87,0,0,0,125.49,15a3,3,0,0,0-.26-1.28,2.85,2.85,0,0,0-.69-.89,5,5,0,0,0-1-.68l-1.29-.63-2.82-1.23A13.45,13.45,0,0,1,118,9.57a5.8,5.8,0,0,1-1.29-1,4.85,4.85,0,0,1-.93-1.42,4.75,4.75,0,0,1-.36-1.91,4.68,4.68,0,0,1,.46-2.07,5.07,5.07,0,0,1,1.29-1.66,6,6,0,0,1,2-1.1A7.54,7.54,0,0,1,121.59,0a7.87,7.87,0,0,1,3.27.67,8.39,8.39,0,0,1,2.55,1.76l-1.35,1.62a7.06,7.06,0,0,0-2-1.37,6.08,6.08,0,0,0-2.47-.49,4.29,4.29,0,0,0-2.66.77,2.48,2.48,0,0,0-1,2.11,2.42,2.42,0,0,0,.28,1.22,3,3,0,0,0,.77.87,6.21,6.21,0,0,0,1,.66c.38.18.77.36,1.17.52L124,9.54a12,12,0,0,1,1.59.83,5.69,5.69,0,0,1,1.29,1.08,4.64,4.64,0,0,1,.85,1.43,5.38,5.38,0,0,1,.32,1.91,5.22,5.22,0,0,1-1.8,4,6,6,0,0,1-2.1,1.2A8.33,8.33,0,0,1,121.35,20.4Z"/><path class="cls-2" d="M139.17,20.4a8,8,0,0,1-3.41-.72,7.55,7.55,0,0,1-2.65-2.05,9.6,9.6,0,0,1-1.73-3.25,13.8,13.8,0,0,1-.61-4.27,13.56,13.56,0,0,1,.61-4.24,9.39,9.39,0,0,1,1.73-3.19,7.5,7.5,0,0,1,2.65-2A8.28,8.28,0,0,1,139.17,0a8.08,8.08,0,0,1,3.4.71,7.57,7.57,0,0,1,2.67,2A9.24,9.24,0,0,1,147,5.9a13.45,13.45,0,0,1,.62,4.21,13.8,13.8,0,0,1-.62,4.27,9.44,9.44,0,0,1-1.74,3.25,7.71,7.71,0,0,1-2.67,2.05A7.94,7.94,0,0,1,139.17,20.4Zm0-2.19a5,5,0,0,0,2.38-.57A5.38,5.38,0,0,0,143.38,16a8.07,8.07,0,0,0,1.19-2.54,12.38,12.38,0,0,0,.42-3.35,12,12,0,0,0-.42-3.3,7.58,7.58,0,0,0-1.19-2.49,5.37,5.37,0,0,0-1.83-1.57,5.36,5.36,0,0,0-4.77,0A5.37,5.37,0,0,0,135,4.32a7.57,7.57,0,0,0-1.18,2.49,12,12,0,0,0-.42,3.3,12.38,12.38,0,0,0,.42,3.35A8.05,8.05,0,0,0,135,16a5.38,5.38,0,0,0,1.83,1.64A5,5,0,0,0,139.17,18.21Z"/><path class="cls-2" d="M151.83,20V.36h2.58l7.11,12.36,2.13,4.08h.12c-.06-1-.13-2-.2-3.1s-.1-2.13-.1-3.17V.36h2.37V20h-2.58L156.12,7.65,154,3.6h-.12c.08,1,.15,2,.22,3.05s.11,2.06.11,3.1V20Z"/></g></g><g id="COMPARISON-2" class="cls-1"><g class="cls-1"><path class="cls-3" d="M10.58,20.4a8.36,8.36,0,0,1-3.42-.69,7.84,7.84,0,0,1-2.72-2,9.16,9.16,0,0,1-1.8-3.21A13.31,13.31,0,0,1,2,10.2a12.87,12.87,0,0,1,.66-4.26A9.49,9.49,0,0,1,4.49,2.73a7.83,7.83,0,0,1,2.76-2A8.49,8.49,0,0,1,10.73,0a6.56,6.56,0,0,1,3.16.74,8.28,8.28,0,0,1,2.24,1.69L14.78,4.05A6.41,6.41,0,0,0,13,2.7a4.84,4.84,0,0,0-2.25-.51,5.75,5.75,0,0,0-2.55.56,5.61,5.61,0,0,0-2,1.58A7.57,7.57,0,0,0,5,6.84a11.62,11.62,0,0,0-.43,3.3A11.94,11.94,0,0,0,5,13.49,8,8,0,0,0,6.23,16a5.36,5.36,0,0,0,1.9,1.62,5.55,5.55,0,0,0,2.54.57,5.33,5.33,0,0,0,2.52-.58,7.87,7.87,0,0,0,2-1.64l1.38,1.56A8.75,8.75,0,0,1,14,19.65,7.36,7.36,0,0,1,10.58,20.4Z"/><path class="cls-3" d="M26.66,20.4a8,8,0,0,1-3.41-.72,7.55,7.55,0,0,1-2.65-2.05,9.41,9.41,0,0,1-1.72-3.25,13.5,13.5,0,0,1-.62-4.27,13.27,13.27,0,0,1,.62-4.24A9.21,9.21,0,0,1,20.6,2.68a7.5,7.5,0,0,1,2.65-2A8.31,8.31,0,0,1,26.66,0a8.16,8.16,0,0,1,3.41.71,7.66,7.66,0,0,1,2.67,2A9.22,9.22,0,0,1,34.47,5.9a13.45,13.45,0,0,1,.62,4.21,13.8,13.8,0,0,1-.62,4.27,9.43,9.43,0,0,1-1.73,3.25,7.81,7.81,0,0,1-2.67,2.05A8,8,0,0,1,26.66,20.4Zm0-2.19A5,5,0,0,0,29,17.64,5.41,5.41,0,0,0,30.88,16a8.28,8.28,0,0,0,1.18-2.54,12.38,12.38,0,0,0,.42-3.35,12,12,0,0,0-.42-3.3,7.78,7.78,0,0,0-1.18-2.49A5.4,5.4,0,0,0,29,2.75a5.34,5.34,0,0,0-4.76,0,5.28,5.28,0,0,0-1.83,1.57,7.39,7.39,0,0,0-1.19,2.49,12,12,0,0,0-.42,3.3,12.38,12.38,0,0,0,.42,3.35A7.85,7.85,0,0,0,22.45,16a5.29,5.29,0,0,0,1.83,1.64A4.93,4.93,0,0,0,26.66,18.21Z"/><path class="cls-3" d="M39.32,20V.36h3l3.78,10.5c.24.68.47,1.36.7,2.06s.47,1.37.71,2.05h.12c.24-.68.46-1.36.67-2.05s.44-1.38.68-2.06L52.7.36h3V20H53.39V9.21q0-1.32.12-2.91t.21-2.91H53.6L52,7.86l-3.72,10.2H46.67L43,7.86,41.39,3.39h-.12c.06.88.12,1.85.19,2.91s.11,2,.11,2.91V20Z"/><path class="cls-3" d="M61.13,20V.36h5.61a14,14,0,0,1,3,.3,6.4,6.4,0,0,1,2.33,1,4.61,4.61,0,0,1,1.5,1.79,6.21,6.21,0,0,1,.54,2.73,6.41,6.41,0,0,1-.53,2.7,5,5,0,0,1-1.48,1.89,6.6,6.6,0,0,1-2.3,1.13,10.88,10.88,0,0,1-3,.37H63.62V20Zm2.49-9.84h2.94a6.09,6.09,0,0,0,3.82-1,3.64,3.64,0,0,0,1.25-3.07A3.21,3.21,0,0,0,70.32,3.2a7.34,7.34,0,0,0-3.88-.83H63.62Z"/><path class="cls-3" d="M74,20,80.66.36h2.82L90.14,20H87.47l-1.86-6H78.44l-1.89,6ZM80,9l-.93,3H85l-.93-3c-.36-1.1-.7-2.2-1-3.28s-.64-2.21-1-3.35H82c-.3,1.14-.61,2.26-.93,3.35S80.36,7.93,80,9Z"/><path class="cls-3" d="M92.93,20V.36h6.15a12.66,12.66,0,0,1,2.77.29,5.73,5.73,0,0,1,2.19.94,4.5,4.5,0,0,1,1.43,1.71A5.87,5.87,0,0,1,106,5.88a5.43,5.43,0,0,1-1.2,3.69,6.13,6.13,0,0,1-3.24,1.89l5,8.58h-2.82L99,11.73H95.42V20ZM95.42,9.69h3.3a5.72,5.72,0,0,0,3.54-.94,3.4,3.4,0,0,0,1.23-2.87,3,3,0,0,0-1.23-2.73,6.64,6.64,0,0,0-3.54-.78h-3.3Z"/><path class="cls-3" d="M110,20V.36h2.49V20Z"/><path class="cls-3" d="M123.35,20.4a9.44,9.44,0,0,1-6.9-2.91l1.5-1.74a8.38,8.38,0,0,0,2.47,1.79,6.84,6.84,0,0,0,3,.67,4.66,4.66,0,0,0,3-.88A2.87,2.87,0,0,0,127.49,15a3,3,0,0,0-.26-1.28,2.85,2.85,0,0,0-.69-.89,5,5,0,0,0-1-.68l-1.29-.63-2.82-1.23A13.45,13.45,0,0,1,120,9.57a5.8,5.8,0,0,1-1.29-1,4.85,4.85,0,0,1-.93-1.42,4.75,4.75,0,0,1-.36-1.91,4.68,4.68,0,0,1,.46-2.07,5.07,5.07,0,0,1,1.29-1.66,6,6,0,0,1,2-1.1A7.54,7.54,0,0,1,123.59,0a7.87,7.87,0,0,1,3.27.67,8.39,8.39,0,0,1,2.55,1.76l-1.35,1.62a7.06,7.06,0,0,0-2-1.37,6.08,6.08,0,0,0-2.47-.49,4.29,4.29,0,0,0-2.66.77,2.48,2.48,0,0,0-1,2.11,2.42,2.42,0,0,0,.28,1.22,3,3,0,0,0,.77.87,6.21,6.21,0,0,0,1,.66c.38.18.77.36,1.17.52L126,9.54a12,12,0,0,1,1.59.83,5.69,5.69,0,0,1,1.29,1.08,4.64,4.64,0,0,1,.85,1.43,5.38,5.38,0,0,1,.32,1.91,5.22,5.22,0,0,1-1.8,4,6,6,0,0,1-2.1,1.2A8.33,8.33,0,0,1,123.35,20.4Z"/><path class="cls-3" d="M141.17,20.4a8,8,0,0,1-3.41-.72,7.55,7.55,0,0,1-2.65-2.05,9.6,9.6,0,0,1-1.73-3.25,13.8,13.8,0,0,1-.61-4.27,13.56,13.56,0,0,1,.61-4.24,9.39,9.39,0,0,1,1.73-3.19,7.5,7.5,0,0,1,2.65-2A8.28,8.28,0,0,1,141.17,0a8.08,8.08,0,0,1,3.4.71,7.57,7.57,0,0,1,2.67,2A9.24,9.24,0,0,1,149,5.9a13.45,13.45,0,0,1,.62,4.21,13.8,13.8,0,0,1-.62,4.27,9.44,9.44,0,0,1-1.74,3.25,7.71,7.71,0,0,1-2.67,2.05A7.94,7.94,0,0,1,141.17,20.4Zm0-2.19a5,5,0,0,0,2.38-.57A5.38,5.38,0,0,0,145.38,16a8.07,8.07,0,0,0,1.19-2.54,12.38,12.38,0,0,0,.42-3.35,12,12,0,0,0-.42-3.3,7.58,7.58,0,0,0-1.19-2.49,5.37,5.37,0,0,0-1.83-1.57,5.36,5.36,0,0,0-4.77,0A5.37,5.37,0,0,0,137,4.32a7.57,7.57,0,0,0-1.18,2.49,12,12,0,0,0-.42,3.3,12.38,12.38,0,0,0,.42,3.35A8.05,8.05,0,0,0,137,16a5.38,5.38,0,0,0,1.83,1.64A5,5,0,0,0,141.17,18.21Z"/><path class="cls-3" d="M153.83,20V.36h2.58l7.11,12.36,2.13,4.08h.12c-.06-1-.13-2-.2-3.1s-.1-2.13-.1-3.17V.36h2.37V20h-2.58L158.12,7.65,156,3.6h-.12c.08,1,.15,2,.22,3.05s.11,2.06.11,3.1V20Z"/></g></g></g></g></svg>