<svg xmlns="http://www.w3.org/2000/svg" viewBox="0 0 81.2 19.68"><defs><style>.cls-1{isolation:isolate;}.cls-2{fill:red;}.cls-3{fill:#fff;}</style></defs><title>filter_header</title><g id="Laag_2" data-name="Laag 2"><g id="Laag_1-2" data-name="Laag 1"><g id="Group_22" data-name="Group 22"><g id="FILTER" class="cls-1"><g class="cls-1"><path class="cls-2" d="M0,19.68V0H11.34V2.1H2.49V8.76H10v2.1H2.49v8.82Z"/><path class="cls-2" d="M14.82,19.68V0h2.49V19.68Z"/><path class="cls-2" d="M22.71,19.68V0H25.2V17.55h8.61v2.13Z"/><path class="cls-2" d="M37.77,19.68V2.1H31.83V0h14.4V2.1H40.29V19.68Z"/><path class="cls-2" d="M49.77,19.68V0H61.11V2.1H52.26V8.28h7.47v2.13H52.26v7.14h9.15v2.13Z"/><path class="cls-2" d="M65.58,19.68V0h6.15A12.08,12.08,0,0,1,74.5.29a5.73,5.73,0,0,1,2.19.94,4.5,4.5,0,0,1,1.43,1.71,5.87,5.87,0,0,1,.51,2.58,5.43,5.43,0,0,1-1.2,3.69,6.13,6.13,0,0,1-3.24,1.89l5,8.58H76.38l-4.74-8.31H68.07v8.31ZM68.07,9.33h3.3a5.72,5.72,0,0,0,3.54-.95,3.38,3.38,0,0,0,1.23-2.86,3,3,0,0,0-1.23-2.73A6.64,6.64,0,0,0,71.37,2h-3.3Z"/></g></g><g id="FILTER-2" class="cls-1"><g class="cls-1"><path class="cls-3" d="M2,19.68V0H13.34V2.1H4.49V8.76H12v2.1H4.49v8.82Z"/><path class="cls-3" d="M16.82,19.68V0h2.49V19.68Z"/><path class="cls-3" d="M24.71,19.68V0H27.2V17.55h8.61v2.13Z"/><path class="cls-3" d="M39.77,19.68V2.1H33.83V0h14.4V2.1H42.29V19.68Z"/><path class="cls-3" d="M51.77,19.68V0H63.11V2.1H54.26V8.28h7.47v2.13H54.26v7.14h9.15v2.13Z"/><path class="cls-3" d="M67.58,19.68V0h6.15A12.08,12.08,0,0,1,76.5.29a5.73,5.73,0,0,1,2.19.94,4.5,4.5,0,0,1,1.43,1.71,5.87,5.87,0,0,1,.51,2.58,5.43,5.43,0,0,1-1.2,3.69,6.13,6.13,0,0,1-3.24,1.89l5,8.58H78.38l-4.74-8.31H70.07v8.31ZM70.07,9.33h3.3a5.72,5.72,0,0,0,3.54-.95,3.38,3.38,0,0,0,1.23-2.86,3,3,0,0,0-1.23-2.73A6.64,6.64,0,0,0,73.37,2h-3.3Z"/></g></g></g></g></g></svg>