<svg xmlns="http://www.w3.org/2000/svg" viewBox="0 0 235.75 20.4"><defs><style>.cls-1{isolation:isolate;}.cls-2{fill:red;}.cls-3{fill:#fff;}</style></defs><title>finalizing_order</title><g id="Laag_2" data-name="Laag 2"><g id="Laag_1-2" data-name="Laag 1"><g id="FINALIZING_ORDER_" data-name="FINALIZING ORDER " class="cls-1"><g class="cls-1"><path class="cls-2" d="M0,20V.36H11.34v2.1H2.49V9.12H10v2.1H2.49V20Z"/><path class="cls-2" d="M14.82,20V.36h2.49V20Z"/><path class="cls-2" d="M22.71,20V.36h2.58L32.4,12.72l2.13,4.08h.12c-.06-1-.13-2-.2-3.1s-.1-2.13-.1-3.17V.36h2.37V20H34.14L27,7.65,24.87,3.6h-.12c.08,1,.15,2,.22,3.05s.11,2.06.11,3.1V20Z"/><path class="cls-2" d="M39.51,20,46.17.36H49L55.65,20H53l-1.86-6H44l-1.89,6Zm6-11-.93,3h5.91l-.93-3c-.36-1.1-.7-2.2-1-3.28s-.64-2.21-1-3.35h-.12c-.3,1.14-.61,2.26-.93,3.35S45.87,7.93,45.51,9Z"/><path class="cls-2" d="M58.44,20V.36h2.49V17.91h8.61V20Z"/><path class="cls-2" d="M73,20V.36h2.49V20Z"/><path class="cls-2" d="M79.56,20v-1.5L89.91,2.46H80.49V.36H93V1.83L82.65,17.91H93.12V20Z"/><path class="cls-2" d="M97.08,20V.36h2.49V20Z"/><path class="cls-2" d="M105,20V.36h2.58l7.11,12.36,2.13,4.08h.12c-.06-1-.13-2-.2-3.1s-.1-2.13-.1-3.17V.36H119V20H116.4L109.26,7.65,107.13,3.6H107c.08,1,.15,2,.22,3.05s.11,2.06.11,3.1V20Z"/><path class="cls-2" d="M132.12,20.4a9.15,9.15,0,0,1-3.59-.69,7.78,7.78,0,0,1-2.8-2,9.21,9.21,0,0,1-1.83-3.21,13,13,0,0,1-.66-4.3,12.61,12.61,0,0,1,.67-4.26,9.42,9.42,0,0,1,1.88-3.21,7.93,7.93,0,0,1,2.86-2A9.2,9.2,0,0,1,132.27,0a7.81,7.81,0,0,1,1.87.21,8.4,8.4,0,0,1,1.56.55,7.7,7.7,0,0,1,1.26.78,8.6,8.6,0,0,1,1,.89l-1.38,1.62a7.13,7.13,0,0,0-1.74-1.32,5.16,5.16,0,0,0-2.49-.54,6.36,6.36,0,0,0-2.7.56,5.73,5.73,0,0,0-2,1.58,7.67,7.67,0,0,0-1.31,2.51,10.92,10.92,0,0,0-.46,3.3,11.94,11.94,0,0,0,.43,3.35A7.5,7.5,0,0,0,127.51,16a5.56,5.56,0,0,0,2,1.62,6.56,6.56,0,0,0,2.81.57,6.23,6.23,0,0,0,2-.31A4.51,4.51,0,0,0,135.9,17V11.91h-4.17V9.84h6.45v8.28a7.23,7.23,0,0,1-2.52,1.63A9.19,9.19,0,0,1,132.12,20.4Z"/><path class="cls-2" d="M156.15,20.4a8,8,0,0,1-3.41-.72,7.55,7.55,0,0,1-2.65-2.05,9.6,9.6,0,0,1-1.73-3.25,13.8,13.8,0,0,1-.61-4.27,13.56,13.56,0,0,1,.61-4.24,9.39,9.39,0,0,1,1.73-3.19,7.5,7.5,0,0,1,2.65-2A8.28,8.28,0,0,1,156.15,0a8.08,8.08,0,0,1,3.4.71,7.57,7.57,0,0,1,2.67,2A9.24,9.24,0,0,1,164,5.9a13.45,13.45,0,0,1,.62,4.21,13.8,13.8,0,0,1-.62,4.27,9.44,9.44,0,0,1-1.74,3.25,7.71,7.71,0,0,1-2.67,2.05A7.94,7.94,0,0,1,156.15,20.4Zm0-2.19a5,5,0,0,0,2.38-.57A5.38,5.38,0,0,0,160.36,16a8.07,8.07,0,0,0,1.19-2.54,12.38,12.38,0,0,0,.42-3.35,12,12,0,0,0-.42-3.3,7.58,7.58,0,0,0-1.19-2.49,5.37,5.37,0,0,0-1.83-1.57,5.36,5.36,0,0,0-4.77,0,5.37,5.37,0,0,0-1.83,1.57,7.57,7.57,0,0,0-1.18,2.49,12,12,0,0,0-.42,3.3,12.38,12.38,0,0,0,.42,3.35A8.05,8.05,0,0,0,151.93,16a5.38,5.38,0,0,0,1.83,1.64A5,5,0,0,0,156.15,18.21Z"/><path class="cls-2" d="M168.81,20V.36H175a12.66,12.66,0,0,1,2.77.29,5.73,5.73,0,0,1,2.19.94,4.59,4.59,0,0,1,1.43,1.71,5.87,5.87,0,0,1,.51,2.58,5.43,5.43,0,0,1-1.2,3.69,6.13,6.13,0,0,1-3.24,1.89l5,8.58h-2.82l-4.74-8.31H171.3V20ZM171.3,9.69h3.3a5.72,5.72,0,0,0,3.54-.94,3.4,3.4,0,0,0,1.23-2.87,3,3,0,0,0-1.23-2.73,6.64,6.64,0,0,0-3.54-.78h-3.3Z"/><path class="cls-2" d="M185.88,20V.36h4.91q4.56,0,6.93,2.52t2.37,7.23a13.74,13.74,0,0,1-.59,4.18,8.49,8.49,0,0,1-1.78,3.13,7.66,7.66,0,0,1-2.88,1.95,10.59,10.59,0,0,1-3.92.67Zm2.49-2h2.25a6.35,6.35,0,0,0,5.17-2.07,8.84,8.84,0,0,0,1.72-5.82,8.47,8.47,0,0,0-1.72-5.73,6.5,6.5,0,0,0-5.17-2h-2.25Z"/><path class="cls-2" d="M204.33,20V.36h11.34v2.1h-8.85V8.64h7.47v2.13h-7.47v7.14H216V20Z"/><path class="cls-2" d="M220.13,20V.36h6.15a12.76,12.76,0,0,1,2.78.29,5.73,5.73,0,0,1,2.19.94,4.48,4.48,0,0,1,1.42,1.71,5.87,5.87,0,0,1,.51,2.58A5.43,5.43,0,0,1,232,9.57a6.13,6.13,0,0,1-3.24,1.89l5,8.58h-2.82l-4.74-8.31h-3.56V20Zm2.5-10.35h3.29a5.72,5.72,0,0,0,3.54-.94,3.4,3.4,0,0,0,1.23-2.87,3,3,0,0,0-1.23-2.73,6.64,6.64,0,0,0-3.54-.78h-3.29Z"/></g></g><g id="FINALIZING_ORDER" data-name="FINALIZING ORDER" class="cls-1"><g class="cls-1"><path class="cls-3" d="M2,20V.36H13.34v2.1H4.49V9.12H12v2.1H4.49V20Z"/><path class="cls-3" d="M16.82,20V.36h2.49V20Z"/><path class="cls-3" d="M24.71,20V.36h2.58L34.4,12.72l2.13,4.08h.12c-.06-1-.13-2-.2-3.1s-.1-2.13-.1-3.17V.36h2.37V20H36.14L29,7.65,26.87,3.6h-.12c.08,1,.15,2,.22,3.05s.11,2.06.11,3.1V20Z"/><path class="cls-3" d="M41.51,20,48.17.36H51L57.65,20H55l-1.86-6H46l-1.89,6Zm6-11-.93,3h5.91l-.93-3c-.36-1.1-.7-2.2-1-3.28s-.64-2.21-1-3.35h-.12c-.3,1.14-.61,2.26-.93,3.35S47.87,7.93,47.51,9Z"/><path class="cls-3" d="M60.44,20V.36h2.49V17.91h8.61V20Z"/><path class="cls-3" d="M75,20V.36h2.49V20Z"/><path class="cls-3" d="M81.56,20v-1.5L91.91,2.46H82.49V.36H95V1.83L84.65,17.91H95.12V20Z"/><path class="cls-3" d="M99.08,20V.36h2.49V20Z"/><path class="cls-3" d="M107,20V.36h2.58l7.11,12.36,2.13,4.08h.12c-.06-1-.13-2-.2-3.1s-.1-2.13-.1-3.17V.36H121V20H118.4L111.26,7.65,109.13,3.6H109c.08,1,.15,2,.22,3.05s.11,2.06.11,3.1V20Z"/><path class="cls-3" d="M134.12,20.4a9.15,9.15,0,0,1-3.59-.69,7.78,7.78,0,0,1-2.8-2,9.21,9.21,0,0,1-1.83-3.21,13,13,0,0,1-.66-4.3,12.61,12.61,0,0,1,.67-4.26,9.42,9.42,0,0,1,1.88-3.21,7.93,7.93,0,0,1,2.86-2A9.2,9.2,0,0,1,134.27,0a7.81,7.81,0,0,1,1.87.21,8.4,8.4,0,0,1,1.56.55,7.7,7.7,0,0,1,1.26.78,8.6,8.6,0,0,1,1,.89l-1.38,1.62a7.13,7.13,0,0,0-1.74-1.32,5.16,5.16,0,0,0-2.49-.54,6.36,6.36,0,0,0-2.7.56,5.73,5.73,0,0,0-2,1.58,7.67,7.67,0,0,0-1.31,2.51,10.92,10.92,0,0,0-.46,3.3,11.94,11.94,0,0,0,.43,3.35A7.5,7.5,0,0,0,129.51,16a5.56,5.56,0,0,0,2,1.62,6.56,6.56,0,0,0,2.81.57,6.23,6.23,0,0,0,2-.31A4.51,4.51,0,0,0,137.9,17V11.91h-4.17V9.84h6.45v8.28a7.23,7.23,0,0,1-2.52,1.63A9.19,9.19,0,0,1,134.12,20.4Z"/><path class="cls-3" d="M158.15,20.4a8,8,0,0,1-3.41-.72,7.55,7.55,0,0,1-2.65-2.05,9.6,9.6,0,0,1-1.73-3.25,13.8,13.8,0,0,1-.61-4.27,13.56,13.56,0,0,1,.61-4.24,9.39,9.39,0,0,1,1.73-3.19,7.5,7.5,0,0,1,2.65-2A8.28,8.28,0,0,1,158.15,0a8.08,8.08,0,0,1,3.4.71,7.57,7.57,0,0,1,2.67,2A9.24,9.24,0,0,1,166,5.9a13.45,13.45,0,0,1,.62,4.21,13.8,13.8,0,0,1-.62,4.27,9.44,9.44,0,0,1-1.74,3.25,7.71,7.71,0,0,1-2.67,2.05A7.94,7.94,0,0,1,158.15,20.4Zm0-2.19a5,5,0,0,0,2.38-.57A5.38,5.38,0,0,0,162.36,16a8.07,8.07,0,0,0,1.19-2.54,12.38,12.38,0,0,0,.42-3.35,12,12,0,0,0-.42-3.3,7.58,7.58,0,0,0-1.19-2.49,5.37,5.37,0,0,0-1.83-1.57,5.36,5.36,0,0,0-4.77,0,5.37,5.37,0,0,0-1.83,1.57,7.57,7.57,0,0,0-1.18,2.49,12,12,0,0,0-.42,3.3,12.38,12.38,0,0,0,.42,3.35A8.05,8.05,0,0,0,153.93,16a5.38,5.38,0,0,0,1.83,1.64A5,5,0,0,0,158.15,18.21Z"/><path class="cls-3" d="M170.81,20V.36H177a12.66,12.66,0,0,1,2.77.29,5.73,5.73,0,0,1,2.19.94,4.59,4.59,0,0,1,1.43,1.71,5.87,5.87,0,0,1,.51,2.58,5.43,5.43,0,0,1-1.2,3.69,6.13,6.13,0,0,1-3.24,1.89l5,8.58h-2.82l-4.74-8.31H173.3V20ZM173.3,9.69h3.3a5.72,5.72,0,0,0,3.54-.94,3.4,3.4,0,0,0,1.23-2.87,3,3,0,0,0-1.23-2.73,6.64,6.64,0,0,0-3.54-.78h-3.3Z"/><path class="cls-3" d="M187.88,20V.36h4.91q4.56,0,6.93,2.52t2.37,7.23a13.74,13.74,0,0,1-.59,4.18,8.49,8.49,0,0,1-1.78,3.13,7.66,7.66,0,0,1-2.88,1.95,10.59,10.59,0,0,1-3.92.67Zm2.49-2h2.25a6.35,6.35,0,0,0,5.17-2.07,8.84,8.84,0,0,0,1.72-5.82,8.47,8.47,0,0,0-1.72-5.73,6.5,6.5,0,0,0-5.17-2h-2.25Z"/><path class="cls-3" d="M206.33,20V.36h11.34v2.1h-8.85V8.64h7.47v2.13h-7.47v7.14H218V20Z"/><path class="cls-3" d="M222.13,20V.36h6.15a12.76,12.76,0,0,1,2.78.29,5.73,5.73,0,0,1,2.19.94,4.48,4.48,0,0,1,1.42,1.71,5.87,5.87,0,0,1,.51,2.58A5.43,5.43,0,0,1,234,9.57a6.13,6.13,0,0,1-3.24,1.89l5,8.58h-2.82l-4.74-8.31h-3.56V20Zm2.5-10.35h3.29a5.72,5.72,0,0,0,3.54-.94,3.4,3.4,0,0,0,1.23-2.87,3,3,0,0,0-1.23-2.73,6.64,6.64,0,0,0-3.54-.78h-3.29Z"/></g></g></g></g></svg>