<svg xmlns="http://www.w3.org/2000/svg" viewBox="0 0 73.07 20.04"><defs><style>.cls-1{isolation:isolate;}.cls-2{fill:red;}.cls-3{fill:#fff;}</style></defs><title>menu_header</title><g id="Laag_2" data-name="Laag 2"><g id="Laag_1-2" data-name="Laag 1"><g id="Group_21" data-name="Group 21"><g id="MENU" class="cls-1"><g class="cls-1"><path class="cls-2" d="M0,19.68V0H3L6.78,10.5c.24.68.47,1.36.71,2.05s.46,1.38.7,2.06h.12c.24-.68.47-1.36.68-2.06s.43-1.37.67-2.05L13.38,0h3V19.68H14.07V8.85q0-1.32.12-2.91T14.4,3h-.12L12.72,7.5,9,17.7H7.35L3.63,7.5,2.07,3H2c.06.88.13,1.85.2,2.91s.1,2,.1,2.91V19.68Z"/><path class="cls-2" d="M21.81,19.68V0H33.15V2.1H24.3V8.28h7.47v2.13H24.3v7.14h9.15v2.13Z"/><path class="cls-2" d="M37.62,19.68V0H40.2l7.11,12.36,2.13,4.08h.12c-.06-1-.13-2-.2-3.11s-.1-2.12-.1-3.16V0h2.37V19.68H49.05L41.91,7.29l-2.13-4h-.12c.08,1,.15,2,.22,3.05S40,8.35,40,9.39V19.68Z"/><path class="cls-2" d="M64,20a8.85,8.85,0,0,1-2.81-.44A5.36,5.36,0,0,1,59,18.17a7,7,0,0,1-1.48-2.63,12.74,12.74,0,0,1-.54-4V0h2.49V11.61a10.48,10.48,0,0,0,.36,3,5.24,5.24,0,0,0,1,1.92,3.64,3.64,0,0,0,1.46,1,5.08,5.08,0,0,0,1.8.31,5.17,5.17,0,0,0,1.83-.31,3.74,3.74,0,0,0,1.47-1,5.11,5.11,0,0,0,1-1.92,10.48,10.48,0,0,0,.36-3V0h2.4V11.55a12.74,12.74,0,0,1-.54,4A7,7,0,0,1,69,18.17a5.35,5.35,0,0,1-2.23,1.43A8.68,8.68,0,0,1,64,20Z"/></g></g><g id="MENU-2" class="cls-1"><g class="cls-1"><path class="cls-3" d="M2,19.68V0H5L8.78,10.5c.24.68.47,1.36.71,2.05s.46,1.38.7,2.06h.12c.24-.68.47-1.36.68-2.06s.43-1.37.67-2.05L15.38,0h3V19.68H16.07V8.85q0-1.32.12-2.91T16.4,3h-.12L14.72,7.5,11,17.7H9.35L5.63,7.5,4.07,3H4c.06.88.13,1.85.2,2.91s.1,2,.1,2.91V19.68Z"/><path class="cls-3" d="M23.81,19.68V0H35.15V2.1H26.3V8.28h7.47v2.13H26.3v7.14h9.15v2.13Z"/><path class="cls-3" d="M39.62,19.68V0H42.2l7.11,12.36,2.13,4.08h.12c-.06-1-.13-2-.2-3.11s-.1-2.12-.1-3.16V0h2.37V19.68H51.05L43.91,7.29l-2.13-4h-.12c.08,1,.15,2,.22,3.05S42,8.35,42,9.39V19.68Z"/><path class="cls-3" d="M66,20a8.85,8.85,0,0,1-2.81-.44A5.36,5.36,0,0,1,61,18.17a7,7,0,0,1-1.48-2.63,12.74,12.74,0,0,1-.54-4V0h2.49V11.61a10.48,10.48,0,0,0,.36,3,5.24,5.24,0,0,0,1,1.92,3.64,3.64,0,0,0,1.46,1,5.08,5.08,0,0,0,1.8.31,5.17,5.17,0,0,0,1.83-.31,3.74,3.74,0,0,0,1.47-1,5.11,5.11,0,0,0,1-1.92,10.48,10.48,0,0,0,.36-3V0h2.4V11.55a12.74,12.74,0,0,1-.54,4A7,7,0,0,1,71,18.17a5.35,5.35,0,0,1-2.23,1.43A8.68,8.68,0,0,1,66,20Z"/></g></g></g></g></g></svg>