<svg xmlns="http://www.w3.org/2000/svg" viewBox="0 0 275.68 22.05"><defs><style>.cls-1{fill:red;}.cls-2{fill:#fff;}</style></defs><title>Middel 1</title><g id="Laag_2" data-name="Laag 2"><g id="Laag_1-2" data-name="Laag 1"><path class="cls-1" d="M9.48,21.75l-7.27-19H2.09c.14,1.5.21,3.29.21,5.36V21.75H0V.34H3.75L10.53,18h.12L17.49.34h3.72V21.75H18.72V8c0-1.58.07-3.3.21-5.15h-.12l-7.33,19Z"/><path class="cls-1" d="M45.67,11c0,3.42-.86,6.12-2.6,8.08a9.15,9.15,0,0,1-7.23,2.95,9.27,9.27,0,0,1-7.3-2.9Q26,16.26,26,11t2.58-8.11A9.32,9.32,0,0,1,35.87,0a9.14,9.14,0,0,1,7.21,2.93Q45.68,5.86,45.67,11ZM28.61,11q0,4.35,1.85,6.59a6.58,6.58,0,0,0,5.38,2.25,6.49,6.49,0,0,0,5.38-2.24Q43,15.38,43,11c0-2.89-.61-5.07-1.81-6.56a6.49,6.49,0,0,0-5.36-2.23,6.61,6.61,0,0,0-5.41,2.25Q28.62,6.72,28.61,11Z"/><path class="cls-1" d="M50.45.34h6q4.26,0,6.17,1.27a4.49,4.49,0,0,1,1.9,4,4.63,4.63,0,0,1-1.06,3.14,5.13,5.13,0,0,1-3.1,1.61v.14q4.88.84,4.88,5.13a5.51,5.51,0,0,1-1.94,4.48,8.26,8.26,0,0,1-5.43,1.61H50.45Zm2.49,9.17H57a6.67,6.67,0,0,0,3.79-.83A3.17,3.17,0,0,0,62,5.89a2.82,2.82,0,0,0-1.29-2.6,8.06,8.06,0,0,0-4.1-.8H52.94Zm0,2.11v8h4.47a6.4,6.4,0,0,0,3.9-1,3.7,3.7,0,0,0,1.31-3.15,3.33,3.33,0,0,0-1.34-2.93,7.19,7.19,0,0,0-4.08-.93Z"/><path class="cls-1" d="M69.89,21.75V.34h2.49V21.75Z"/><path class="cls-1" d="M78.25,21.75V.34h2.49V19.5h9.45v2.25Z"/><path class="cls-1" d="M105.76,21.75H93.82V.34h11.94V2.55H96.31v6.9h8.88v2.2H96.31v7.88h9.45Z"/><path class="cls-1" d="M131.88,6.58a6,6,0,0,1-2.22,5,10,10,0,0,1-6.35,1.75h-2.52v8.42H118.3V.34h5.55Q131.88.34,131.88,6.58Zm-11.09,4.61H123a8.33,8.33,0,0,0,4.79-1.07,3.92,3.92,0,0,0,1.48-3.43,3.68,3.68,0,0,0-1.39-3.16,7.3,7.3,0,0,0-4.34-1h-2.78Z"/><path class="cls-1" d="M138.85,12.85v8.9h-2.49V.34h5.88q3.93,0,5.82,1.51a5.48,5.48,0,0,1,1.88,4.54c0,2.83-1.43,4.74-4.31,5.74l5.82,9.62h-2.94l-5.19-8.9Zm0-2.14h3.42a5.88,5.88,0,0,0,3.86-1.05,3.89,3.89,0,0,0,1.23-3.14,3.55,3.55,0,0,0-1.25-3.06,6.72,6.72,0,0,0-4-.94h-3.24Z"/><path class="cls-1" d="M173.5,11c0,3.42-.87,6.12-2.6,8.08a9.17,9.17,0,0,1-7.23,2.95,9.27,9.27,0,0,1-7.31-2.9q-2.56-2.89-2.57-8.16t2.58-8.11A9.33,9.33,0,0,1,163.7,0a9.13,9.13,0,0,1,7.2,2.93Q173.5,5.86,173.5,11Zm-17.07,0q0,4.35,1.85,6.59a6.58,6.58,0,0,0,5.39,2.25A6.48,6.48,0,0,0,169,17.62q1.82-2.24,1.82-6.6c0-2.89-.6-5.07-1.81-6.56a6.48,6.48,0,0,0-5.35-2.23,6.62,6.62,0,0,0-5.42,2.25Q156.44,6.72,156.43,11Z"/><path class="cls-1" d="M190.5.34h2.68l-7.72,21.41H183L175.33.34H178l4.93,13.85a39.82,39.82,0,0,1,1.34,4.65,37.85,37.85,0,0,1,1.38-4.73Z"/><path class="cls-1" d="M196.13,21.75V.34h2.49V21.75Z"/><path class="cls-1" d="M221.59,10.84q0,5.31-2.88,8.11t-8.29,2.8h-5.93V.34h6.56q5,0,7.77,2.77C220.66,5,221.59,7.53,221.59,10.84Zm-2.64.09c0-2.8-.7-4.9-2.1-6.32s-3.49-2.12-6.25-2.12H207V19.6h3q4.45,0,6.7-2.19T219,10.93Z"/><path class="cls-1" d="M238.3,21.75H226.36V.34H238.3V2.55h-9.45v6.9h8.88v2.2h-8.88v7.88h9.45Z"/><path class="cls-1" d="M245.54,12.85v8.9h-2.49V.34h5.87q3.95,0,5.82,1.51a5.45,5.45,0,0,1,1.89,4.54q0,4.25-4.31,5.74l5.81,9.62h-2.94L250,12.85Zm0-2.14H249a5.89,5.89,0,0,0,3.87-1.05,3.89,3.89,0,0,0,1.23-3.14,3.57,3.57,0,0,0-1.25-3.06,6.78,6.78,0,0,0-4-.94h-3.23Z"/><path class="cls-1" d="M273.68,16.05a5.26,5.26,0,0,1-2.05,4.41,8.88,8.88,0,0,1-5.57,1.59,13.84,13.84,0,0,1-5.86-1v-2.4a15.28,15.28,0,0,0,2.87.88,14.79,14.79,0,0,0,3.08.32,6.21,6.21,0,0,0,3.75-.94,3.11,3.11,0,0,0,1.26-2.63,3.34,3.34,0,0,0-.45-1.82,4.17,4.17,0,0,0-1.49-1.32A21.17,21.17,0,0,0,266,11.79a10.19,10.19,0,0,1-4.27-2.53,5.63,5.63,0,0,1-1.28-3.83,4.76,4.76,0,0,1,1.86-3.94A7.76,7.76,0,0,1,267.26,0a14.48,14.48,0,0,1,5.87,1.17l-.77,2.17a13.33,13.33,0,0,0-5.16-1.11,5,5,0,0,0-3.09.85A2.79,2.79,0,0,0,263,5.46a3.57,3.57,0,0,0,.41,1.83,3.79,3.79,0,0,0,1.38,1.3,17.26,17.26,0,0,0,3,1.31,11.8,11.8,0,0,1,4.64,2.58A5.09,5.09,0,0,1,273.68,16.05Z"/><path class="cls-2" d="M11.48,21.75l-7.27-19H4.09c.14,1.5.21,3.29.21,5.36V21.75H2V.34H5.75L12.53,18h.12L19.49.34h3.72V21.75H20.72V8c0-1.58.07-3.3.21-5.15h-.12l-7.33,19Z"/><path class="cls-2" d="M47.67,11c0,3.42-.86,6.12-2.6,8.08a9.15,9.15,0,0,1-7.23,2.95,9.27,9.27,0,0,1-7.3-2.9Q28,16.26,28,11t2.58-8.11A9.32,9.32,0,0,1,37.87,0a9.14,9.14,0,0,1,7.21,2.93Q47.68,5.86,47.67,11ZM30.61,11q0,4.35,1.85,6.59a6.58,6.58,0,0,0,5.38,2.25,6.49,6.49,0,0,0,5.38-2.24Q45,15.38,45,11c0-2.89-.61-5.07-1.81-6.56a6.49,6.49,0,0,0-5.36-2.23,6.61,6.61,0,0,0-5.41,2.25Q30.62,6.72,30.61,11Z"/><path class="cls-2" d="M52.45.34h6q4.26,0,6.17,1.27a4.49,4.49,0,0,1,1.9,4,4.63,4.63,0,0,1-1.06,3.14,5.13,5.13,0,0,1-3.1,1.61v.14q4.88.84,4.88,5.13a5.51,5.51,0,0,1-1.94,4.48,8.26,8.26,0,0,1-5.43,1.61H52.45Zm2.49,9.17H59a6.67,6.67,0,0,0,3.79-.83A3.17,3.17,0,0,0,64,5.89a2.82,2.82,0,0,0-1.29-2.6,8.06,8.06,0,0,0-4.1-.8H54.94Zm0,2.11v8h4.47a6.4,6.4,0,0,0,3.9-1,3.7,3.7,0,0,0,1.31-3.15,3.33,3.33,0,0,0-1.34-2.93,7.19,7.19,0,0,0-4.08-.93Z"/><path class="cls-2" d="M71.89,21.75V.34h2.49V21.75Z"/><path class="cls-2" d="M80.25,21.75V.34h2.49V19.5h9.45v2.25Z"/><path class="cls-2" d="M107.76,21.75H95.82V.34h11.94V2.55H98.31v6.9h8.88v2.2H98.31v7.88h9.45Z"/><path class="cls-2" d="M133.88,6.58a6,6,0,0,1-2.22,5,10,10,0,0,1-6.35,1.75h-2.52v8.42H120.3V.34h5.55Q133.88.34,133.88,6.58Zm-11.09,4.61H125a8.33,8.33,0,0,0,4.79-1.07,3.92,3.92,0,0,0,1.48-3.43,3.68,3.68,0,0,0-1.39-3.16,7.3,7.3,0,0,0-4.34-1h-2.78Z"/><path class="cls-2" d="M140.85,12.85v8.9h-2.49V.34h5.88q3.93,0,5.82,1.51a5.48,5.48,0,0,1,1.88,4.54c0,2.83-1.43,4.74-4.31,5.74l5.82,9.62h-2.94l-5.19-8.9Zm0-2.14h3.42a5.88,5.88,0,0,0,3.86-1.05,3.89,3.89,0,0,0,1.23-3.14,3.55,3.55,0,0,0-1.25-3.06,6.72,6.72,0,0,0-4-.94h-3.24Z"/><path class="cls-2" d="M175.5,11c0,3.42-.87,6.12-2.6,8.08a9.17,9.17,0,0,1-7.23,2.95,9.27,9.27,0,0,1-7.31-2.9q-2.56-2.89-2.57-8.16t2.58-8.11A9.33,9.33,0,0,1,165.7,0a9.13,9.13,0,0,1,7.2,2.93Q175.5,5.86,175.5,11Zm-17.07,0q0,4.35,1.85,6.59a6.58,6.58,0,0,0,5.39,2.25A6.48,6.48,0,0,0,171,17.62q1.82-2.24,1.82-6.6c0-2.89-.6-5.07-1.81-6.56a6.48,6.48,0,0,0-5.35-2.23,6.62,6.62,0,0,0-5.42,2.25Q158.44,6.72,158.43,11Z"/><path class="cls-2" d="M192.5.34h2.68l-7.72,21.41H185L177.33.34H180l4.93,13.85a39.82,39.82,0,0,1,1.34,4.65,37.85,37.85,0,0,1,1.38-4.73Z"/><path class="cls-2" d="M198.13,21.75V.34h2.49V21.75Z"/><path class="cls-2" d="M223.59,10.84q0,5.31-2.88,8.11t-8.29,2.8h-5.93V.34h6.56q5,0,7.77,2.77C222.66,5,223.59,7.53,223.59,10.84Zm-2.64.09c0-2.8-.7-4.9-2.1-6.32s-3.49-2.12-6.25-2.12H209V19.6h3q4.45,0,6.7-2.19T221,10.93Z"/><path class="cls-2" d="M240.3,21.75H228.36V.34H240.3V2.55h-9.45v6.9h8.88v2.2h-8.88v7.88h9.45Z"/><path class="cls-2" d="M247.54,12.85v8.9h-2.49V.34h5.87q3.95,0,5.82,1.51a5.45,5.45,0,0,1,1.89,4.54q0,4.25-4.31,5.74l5.81,9.62h-2.94L252,12.85Zm0-2.14H251a5.89,5.89,0,0,0,3.87-1.05,3.89,3.89,0,0,0,1.23-3.14,3.57,3.57,0,0,0-1.25-3.06,6.78,6.78,0,0,0-4-.94h-3.23Z"/><path class="cls-2" d="M275.68,16.05a5.26,5.26,0,0,1-2.05,4.41,8.88,8.88,0,0,1-5.57,1.59,13.84,13.84,0,0,1-5.86-1v-2.4a15.28,15.28,0,0,0,2.87.88,14.79,14.79,0,0,0,3.08.32,6.21,6.21,0,0,0,3.75-.94,3.11,3.11,0,0,0,1.26-2.63,3.34,3.34,0,0,0-.45-1.82,4.17,4.17,0,0,0-1.49-1.32A21.17,21.17,0,0,0,268,11.79a10.19,10.19,0,0,1-4.27-2.53,5.63,5.63,0,0,1-1.28-3.83,4.76,4.76,0,0,1,1.86-3.94A7.76,7.76,0,0,1,269.26,0a14.48,14.48,0,0,1,5.87,1.17l-.77,2.17a13.33,13.33,0,0,0-5.16-1.11,5,5,0,0,0-3.09.85A2.79,2.79,0,0,0,265,5.46a3.57,3.57,0,0,0,.41,1.83,3.79,3.79,0,0,0,1.38,1.3,17.26,17.26,0,0,0,3,1.31,11.8,11.8,0,0,1,4.64,2.58A5.09,5.09,0,0,1,275.68,16.05Z"/></g></g></svg>