<svg xmlns="http://www.w3.org/2000/svg" viewBox="0 0 185.18 20.4"><defs><style>.cls-1{isolation:isolate;}.cls-2{fill:red;}.cls-3{fill:#fff;}</style></defs><title>mobile_plans</title><g id="Laag_2" data-name="Laag 2"><g id="Laag_1-2" data-name="Laag 1"><g id="MOBILE_PLANS_" data-name="MOBILE PLANS " class="cls-1"><g class="cls-1"><path class="cls-2" d="M0,20V.36H3l3.78,10.5c.24.68.47,1.36.7,2.06S8,14.29,8.19,15h.12c.24-.68.46-1.36.67-2.05s.44-1.38.68-2.06L13.38.36h3V20H14.07V9.21q0-1.32.12-2.91t.21-2.91h-.12L12.72,7.86,9,18.06H7.35L3.63,7.86,2.07,3.39H2c.06.88.12,1.85.2,2.91s.1,2,.1,2.91V20Z"/><path class="cls-2" d="M29.07,20.4a8,8,0,0,1-3.41-.72A7.55,7.55,0,0,1,23,17.63a9.6,9.6,0,0,1-1.73-3.25,13.8,13.8,0,0,1-.61-4.27,13.56,13.56,0,0,1,.61-4.24A9.39,9.39,0,0,1,23,2.68a7.5,7.5,0,0,1,2.65-2A8.28,8.28,0,0,1,29.07,0a8.08,8.08,0,0,1,3.4.71,7.57,7.57,0,0,1,2.67,2A9.24,9.24,0,0,1,36.88,5.9a13.45,13.45,0,0,1,.62,4.21,13.8,13.8,0,0,1-.62,4.27,9.44,9.44,0,0,1-1.74,3.25,7.71,7.71,0,0,1-2.67,2.05A7.94,7.94,0,0,1,29.07,20.4Zm0-2.19a5,5,0,0,0,2.38-.57A5.38,5.38,0,0,0,33.28,16a8.07,8.07,0,0,0,1.19-2.54,12.38,12.38,0,0,0,.42-3.35,12,12,0,0,0-.42-3.3,7.58,7.58,0,0,0-1.19-2.49,5.37,5.37,0,0,0-1.83-1.57,5.36,5.36,0,0,0-4.77,0,5.37,5.37,0,0,0-1.83,1.57,7.57,7.57,0,0,0-1.18,2.49,12,12,0,0,0-.42,3.3,12.38,12.38,0,0,0,.42,3.35A8.05,8.05,0,0,0,24.85,16a5.38,5.38,0,0,0,1.83,1.64A5,5,0,0,0,29.07,18.21Z"/><path class="cls-2" d="M41.73,20V.36h5.85a12.92,12.92,0,0,1,2.74.27,6.41,6.41,0,0,1,2.13.84A4,4,0,0,1,53.83,3a4.55,4.55,0,0,1,.5,2.2,5,5,0,0,1-.74,2.66,3.76,3.76,0,0,1-2.14,1.63v.12a5.17,5.17,0,0,1,2.91,1.5,4.47,4.47,0,0,1,1.11,3.21,5.57,5.57,0,0,1-.54,2.52,4.92,4.92,0,0,1-1.53,1.8A7,7,0,0,1,51,19.68,12,12,0,0,1,48,20ZM44.22,8.73h2.91a5.94,5.94,0,0,0,3.63-.87,2.85,2.85,0,0,0,1.11-2.37,2.64,2.64,0,0,0-1.16-2.43,6.64,6.64,0,0,0-3.46-.72h-3Zm0,9.33h3.42a7.07,7.07,0,0,0,4-.94A3.28,3.28,0,0,0,53,14.19a3,3,0,0,0-1.38-2.69,7.64,7.64,0,0,0-4-.85H44.22Z"/><path class="cls-2" d="M59.37,20V.36h2.49V20Z"/><path class="cls-2" d="M67.26,20V.36h2.49V17.91h8.61V20Z"/><path class="cls-2" d="M81.84,20V.36H93.18v2.1H84.33V8.64H91.8v2.13H84.33v7.14h9.15V20Z"/><path class="cls-2" d="M103.65,20V.36h5.61a14,14,0,0,1,3,.3,6.4,6.4,0,0,1,2.33,1,4.61,4.61,0,0,1,1.5,1.79,6.21,6.21,0,0,1,.54,2.73,6.41,6.41,0,0,1-.53,2.7,5,5,0,0,1-1.48,1.89,6.6,6.6,0,0,1-2.3,1.13,10.88,10.88,0,0,1-3,.37h-3.24V20Zm2.49-9.84h2.94a6.09,6.09,0,0,0,3.82-1,3.64,3.64,0,0,0,1.25-3.07,3.21,3.21,0,0,0-1.31-2.95A7.34,7.34,0,0,0,109,2.37h-2.82Z"/><path class="cls-2" d="M120.63,20V.36h2.49V17.91h8.61V20Z"/><path class="cls-2" d="M132.69,20,139.35.36h2.82L148.83,20h-2.67l-1.86-6h-7.17l-1.89,6Zm6-11-.93,3h5.91l-.93-3c-.36-1.1-.7-2.2-1-3.28s-.64-2.21-1-3.35h-.12c-.3,1.14-.61,2.26-.93,3.35S139.05,7.93,138.69,9Z"/><path class="cls-2" d="M151.62,20V.36h2.58l7.11,12.36,2.13,4.08h.12c-.06-1-.13-2-.2-3.1s-.1-2.13-.1-3.17V.36h2.37V20h-2.58L155.91,7.65,153.78,3.6h-.12c.08,1,.15,2,.22,3.05s.11,2.06.11,3.1V20Z"/><path class="cls-2" d="M176.49,20.4a9.44,9.44,0,0,1-6.9-2.91l1.5-1.74a8.38,8.38,0,0,0,2.47,1.79,6.84,6.84,0,0,0,3,.67,4.66,4.66,0,0,0,3-.88A2.87,2.87,0,0,0,180.63,15a3,3,0,0,0-.26-1.28,2.85,2.85,0,0,0-.69-.89,5,5,0,0,0-1-.68l-1.29-.63-2.82-1.23a13.45,13.45,0,0,1-1.41-.72,5.8,5.8,0,0,1-1.29-1,4.85,4.85,0,0,1-.93-1.42,4.75,4.75,0,0,1-.36-1.91A4.68,4.68,0,0,1,171,3.15a5.07,5.07,0,0,1,1.29-1.66,6,6,0,0,1,1.95-1.1A7.54,7.54,0,0,1,176.73,0,7.87,7.87,0,0,1,180,.67a8.39,8.39,0,0,1,2.55,1.76L181.2,4.05a7.06,7.06,0,0,0-2-1.37,6.08,6.08,0,0,0-2.47-.49,4.29,4.29,0,0,0-2.66.77,2.48,2.48,0,0,0-1,2.11,2.42,2.42,0,0,0,.28,1.22,3,3,0,0,0,.77.87,6.21,6.21,0,0,0,1,.66c.38.18.77.36,1.17.52l2.79,1.2a12,12,0,0,1,1.59.83A5.69,5.69,0,0,1,182,11.45a4.64,4.64,0,0,1,.85,1.43,5.38,5.38,0,0,1,.32,1.91,5.22,5.22,0,0,1-1.8,4,6,6,0,0,1-2.1,1.2A8.33,8.33,0,0,1,176.49,20.4Z"/></g></g><g id="MOBILE_PLANS" data-name="MOBILE PLANS" class="cls-1"><g class="cls-1"><path class="cls-3" d="M2,20V.36H5l3.78,10.5c.24.68.47,1.36.7,2.06s.47,1.37.71,2.05h.12c.24-.68.46-1.36.67-2.05s.44-1.38.68-2.06L15.38.36h3V20H16.07V9.21q0-1.32.12-2.91t.21-2.91h-.12L14.72,7.86,11,18.06H9.35L5.63,7.86,4.07,3.39H4c.06.88.12,1.85.2,2.91s.1,2,.1,2.91V20Z"/><path class="cls-3" d="M31.07,20.4a8,8,0,0,1-3.41-.72A7.55,7.55,0,0,1,25,17.63a9.6,9.6,0,0,1-1.73-3.25,13.8,13.8,0,0,1-.61-4.27,13.56,13.56,0,0,1,.61-4.24A9.39,9.39,0,0,1,25,2.68a7.5,7.5,0,0,1,2.65-2A8.28,8.28,0,0,1,31.07,0a8.08,8.08,0,0,1,3.4.71,7.57,7.57,0,0,1,2.67,2A9.24,9.24,0,0,1,38.88,5.9a13.45,13.45,0,0,1,.62,4.21,13.8,13.8,0,0,1-.62,4.27,9.44,9.44,0,0,1-1.74,3.25,7.71,7.71,0,0,1-2.67,2.05A7.94,7.94,0,0,1,31.07,20.4Zm0-2.19a5,5,0,0,0,2.38-.57A5.38,5.38,0,0,0,35.28,16a8.07,8.07,0,0,0,1.19-2.54,12.38,12.38,0,0,0,.42-3.35,12,12,0,0,0-.42-3.3,7.58,7.58,0,0,0-1.19-2.49,5.37,5.37,0,0,0-1.83-1.57,5.36,5.36,0,0,0-4.77,0,5.37,5.37,0,0,0-1.83,1.57,7.57,7.57,0,0,0-1.18,2.49,12,12,0,0,0-.42,3.3,12.38,12.38,0,0,0,.42,3.35A8.05,8.05,0,0,0,26.85,16a5.38,5.38,0,0,0,1.83,1.64A5,5,0,0,0,31.07,18.21Z"/><path class="cls-3" d="M43.73,20V.36h5.85a12.92,12.92,0,0,1,2.74.27,6.41,6.41,0,0,1,2.13.84A4,4,0,0,1,55.83,3a4.55,4.55,0,0,1,.5,2.2,5,5,0,0,1-.74,2.66,3.76,3.76,0,0,1-2.14,1.63v.12a5.17,5.17,0,0,1,2.91,1.5,4.47,4.47,0,0,1,1.11,3.21,5.57,5.57,0,0,1-.54,2.52,4.92,4.92,0,0,1-1.53,1.8A7,7,0,0,1,53,19.68,12,12,0,0,1,50,20ZM46.22,8.73h2.91a5.94,5.94,0,0,0,3.63-.87,2.85,2.85,0,0,0,1.11-2.37,2.64,2.64,0,0,0-1.16-2.43,6.64,6.64,0,0,0-3.46-.72h-3Zm0,9.33h3.42a7.07,7.07,0,0,0,4-.94A3.28,3.28,0,0,0,55,14.19a3,3,0,0,0-1.38-2.69,7.64,7.64,0,0,0-4-.85H46.22Z"/><path class="cls-3" d="M61.37,20V.36h2.49V20Z"/><path class="cls-3" d="M69.26,20V.36h2.49V17.91h8.61V20Z"/><path class="cls-3" d="M83.84,20V.36H95.18v2.1H86.33V8.64H93.8v2.13H86.33v7.14h9.15V20Z"/><path class="cls-3" d="M105.65,20V.36h5.61a14,14,0,0,1,3,.3,6.4,6.4,0,0,1,2.33,1,4.61,4.61,0,0,1,1.5,1.79,6.21,6.21,0,0,1,.54,2.73,6.41,6.41,0,0,1-.53,2.7,5,5,0,0,1-1.48,1.89,6.6,6.6,0,0,1-2.3,1.13,10.88,10.88,0,0,1-3,.37h-3.24V20Zm2.49-9.84h2.94a6.09,6.09,0,0,0,3.82-1,3.64,3.64,0,0,0,1.25-3.07,3.21,3.21,0,0,0-1.31-2.95A7.34,7.34,0,0,0,111,2.37h-2.82Z"/><path class="cls-3" d="M122.63,20V.36h2.49V17.91h8.61V20Z"/><path class="cls-3" d="M134.69,20,141.35.36h2.82L150.83,20h-2.67l-1.86-6h-7.17l-1.89,6Zm6-11-.93,3h5.91l-.93-3c-.36-1.1-.7-2.2-1-3.28s-.64-2.21-1-3.35h-.12c-.3,1.14-.61,2.26-.93,3.35S141.05,7.93,140.69,9Z"/><path class="cls-3" d="M153.62,20V.36h2.58l7.11,12.36,2.13,4.08h.12c-.06-1-.13-2-.2-3.1s-.1-2.13-.1-3.17V.36h2.37V20h-2.58L157.91,7.65,155.78,3.6h-.12c.08,1,.15,2,.22,3.05s.11,2.06.11,3.1V20Z"/><path class="cls-3" d="M178.49,20.4a9.44,9.44,0,0,1-6.9-2.91l1.5-1.74a8.38,8.38,0,0,0,2.47,1.79,6.84,6.84,0,0,0,3,.67,4.66,4.66,0,0,0,3-.88A2.87,2.87,0,0,0,182.63,15a3,3,0,0,0-.26-1.28,2.85,2.85,0,0,0-.69-.89,5,5,0,0,0-1-.68l-1.29-.63-2.82-1.23a13.45,13.45,0,0,1-1.41-.72,5.8,5.8,0,0,1-1.29-1,4.85,4.85,0,0,1-.93-1.42,4.75,4.75,0,0,1-.36-1.91A4.68,4.68,0,0,1,173,3.15a5.07,5.07,0,0,1,1.29-1.66,6,6,0,0,1,1.95-1.1A7.54,7.54,0,0,1,178.73,0,7.87,7.87,0,0,1,182,.67a8.39,8.39,0,0,1,2.55,1.76L183.2,4.05a7.06,7.06,0,0,0-2-1.37,6.08,6.08,0,0,0-2.47-.49,4.29,4.29,0,0,0-2.66.77,2.48,2.48,0,0,0-1,2.11,2.42,2.42,0,0,0,.28,1.22,3,3,0,0,0,.77.87,6.21,6.21,0,0,0,1,.66c.38.18.77.36,1.17.52l2.79,1.2a12,12,0,0,1,1.59.83A5.69,5.69,0,0,1,184,11.45a4.64,4.64,0,0,1,.85,1.43,5.38,5.38,0,0,1,.32,1.91,5.22,5.22,0,0,1-1.8,4,6,6,0,0,1-2.1,1.2A8.33,8.33,0,0,1,178.49,20.4Z"/></g></g></g></g></svg>