<svg xmlns="http://www.w3.org/2000/svg" viewBox="0 0 128.96 20.4"><defs><style>.cls-1{isolation:isolate;}.cls-2{fill:red;}.cls-3{fill:#fff;}</style></defs><title>my_order</title><g id="Laag_2" data-name="Laag 2"><g id="Laag_1-2" data-name="Laag 1"><g id="MY_ORDER" data-name="MY ORDER" class="cls-1"><g class="cls-1"><path class="cls-2" d="M0,20V.36H3l3.78,10.5c.24.68.47,1.36.71,2.06S8,14.29,8.19,15h.12c.24-.68.47-1.36.68-2.05s.43-1.38.67-2.06L13.38.36h3V20H14.07V9.21q0-1.32.12-2.91t.21-2.91h-.12L12.72,7.86,9,18.06H7.35L3.63,7.86,2.07,3.39H2c.06.88.13,1.85.2,2.91s.1,2,.1,2.91V20Z"/><path class="cls-2" d="M25,20V12.42L19.08.36h2.67L24.3,5.91Q24.78,7,25.23,8t1,2.16h.12q.51-1.11,1-2.16t1-2.13L30.81.36h2.61L27.51,12.42V20Z"/><path class="cls-2" d="M49.35,20.4a8,8,0,0,1-3.41-.72,7.55,7.55,0,0,1-2.65-2.05,9.6,9.6,0,0,1-1.73-3.25A13.8,13.8,0,0,1,41,10.11a13.56,13.56,0,0,1,.61-4.24,9.39,9.39,0,0,1,1.73-3.19,7.5,7.5,0,0,1,2.65-2A8.28,8.28,0,0,1,49.35,0a8.08,8.08,0,0,1,3.4.71,7.57,7.57,0,0,1,2.67,2A9.24,9.24,0,0,1,57.16,5.9a13.45,13.45,0,0,1,.62,4.21,13.8,13.8,0,0,1-.62,4.27,9.44,9.44,0,0,1-1.74,3.25,7.71,7.71,0,0,1-2.67,2.05A7.94,7.94,0,0,1,49.35,20.4Zm0-2.19a5,5,0,0,0,2.38-.57A5.38,5.38,0,0,0,53.56,16a8.07,8.07,0,0,0,1.19-2.54,12.38,12.38,0,0,0,.42-3.35,12,12,0,0,0-.42-3.3,7.58,7.58,0,0,0-1.19-2.49,5.37,5.37,0,0,0-1.83-1.57,5.36,5.36,0,0,0-4.77,0,5.37,5.37,0,0,0-1.83,1.57A7.57,7.57,0,0,0,44,6.81a12,12,0,0,0-.42,3.3A12.38,12.38,0,0,0,44,13.46,8.05,8.05,0,0,0,45.13,16,5.38,5.38,0,0,0,47,17.64,5,5,0,0,0,49.35,18.21Z"/><path class="cls-2" d="M62,20V.36h6.15a12.66,12.66,0,0,1,2.77.29,5.73,5.73,0,0,1,2.19.94A4.5,4.5,0,0,1,74.55,3.3a5.87,5.87,0,0,1,.51,2.58,5.43,5.43,0,0,1-1.2,3.69,6.13,6.13,0,0,1-3.24,1.89l5,8.58H72.81l-4.74-8.31H64.5V20ZM64.5,9.69h3.3a5.72,5.72,0,0,0,3.54-.94,3.4,3.4,0,0,0,1.23-2.87,3,3,0,0,0-1.23-2.73,6.64,6.64,0,0,0-3.54-.78H64.5Z"/><path class="cls-2" d="M79.08,20V.36H84q4.56,0,6.93,2.52t2.37,7.23a13.43,13.43,0,0,1-.6,4.18,8.33,8.33,0,0,1-1.77,3.13,7.66,7.66,0,0,1-2.88,1.95,10.65,10.65,0,0,1-3.93.67Zm2.49-2h2.25A6.34,6.34,0,0,0,89,15.93a8.84,8.84,0,0,0,1.73-5.82A8.47,8.47,0,0,0,89,4.38a6.49,6.49,0,0,0-5.17-2H81.57Z"/><path class="cls-2" d="M97.53,20V.36h11.34v2.1H100V8.64h7.47v2.13H100v7.14h9.15V20Z"/><path class="cls-2" d="M113.34,20V.36h6.15a12.66,12.66,0,0,1,2.77.29,5.73,5.73,0,0,1,2.19.94,4.5,4.5,0,0,1,1.43,1.71,5.87,5.87,0,0,1,.51,2.58,5.43,5.43,0,0,1-1.2,3.69A6.13,6.13,0,0,1,122,11.46L127,20h-2.82l-4.74-8.31h-3.57V20Zm2.49-10.35h3.3a5.72,5.72,0,0,0,3.54-.94,3.4,3.4,0,0,0,1.23-2.87,3,3,0,0,0-1.23-2.73,6.64,6.64,0,0,0-3.54-.78h-3.3Z"/></g></g><g id="MY_ORDER-2" data-name="MY ORDER-2" class="cls-1"><g class="cls-1"><path class="cls-3" d="M2,20V.36H5l3.78,10.5c.24.68.47,1.36.71,2.06s.46,1.37.7,2.05h.12c.24-.68.47-1.36.68-2.05s.43-1.38.67-2.06L15.38.36h3V20H16.07V9.21q0-1.32.12-2.91t.21-2.91h-.12L14.72,7.86,11,18.06H9.35L5.63,7.86,4.07,3.39H4c.06.88.13,1.85.2,2.91s.1,2,.1,2.91V20Z"/><path class="cls-3" d="M27,20V12.42L21.08.36h2.67L26.3,5.91Q26.78,7,27.23,8t1,2.16h.12q.51-1.11,1-2.16t1-2.13L32.81.36h2.61L29.51,12.42V20Z"/><path class="cls-3" d="M51.35,20.4a8,8,0,0,1-3.41-.72,7.55,7.55,0,0,1-2.65-2.05,9.6,9.6,0,0,1-1.73-3.25A13.8,13.8,0,0,1,43,10.11a13.56,13.56,0,0,1,.61-4.24,9.39,9.39,0,0,1,1.73-3.19,7.5,7.5,0,0,1,2.65-2A8.28,8.28,0,0,1,51.35,0a8.08,8.08,0,0,1,3.4.71,7.57,7.57,0,0,1,2.67,2A9.24,9.24,0,0,1,59.16,5.9a13.45,13.45,0,0,1,.62,4.21,13.8,13.8,0,0,1-.62,4.27,9.44,9.44,0,0,1-1.74,3.25,7.71,7.71,0,0,1-2.67,2.05A7.94,7.94,0,0,1,51.35,20.4Zm0-2.19a5,5,0,0,0,2.38-.57A5.38,5.38,0,0,0,55.56,16a8.07,8.07,0,0,0,1.19-2.54,12.38,12.38,0,0,0,.42-3.35,12,12,0,0,0-.42-3.3,7.58,7.58,0,0,0-1.19-2.49,5.37,5.37,0,0,0-1.83-1.57,5.36,5.36,0,0,0-4.77,0,5.37,5.37,0,0,0-1.83,1.57A7.57,7.57,0,0,0,46,6.81a12,12,0,0,0-.42,3.3A12.38,12.38,0,0,0,46,13.46,8.05,8.05,0,0,0,47.13,16,5.38,5.38,0,0,0,49,17.64,5,5,0,0,0,51.35,18.21Z"/><path class="cls-3" d="M64,20V.36h6.15a12.66,12.66,0,0,1,2.77.29,5.73,5.73,0,0,1,2.19.94A4.5,4.5,0,0,1,76.55,3.3a5.87,5.87,0,0,1,.51,2.58,5.43,5.43,0,0,1-1.2,3.69,6.13,6.13,0,0,1-3.24,1.89l5,8.58H74.81l-4.74-8.31H66.5V20ZM66.5,9.69h3.3a5.72,5.72,0,0,0,3.54-.94,3.4,3.4,0,0,0,1.23-2.87,3,3,0,0,0-1.23-2.73,6.64,6.64,0,0,0-3.54-.78H66.5Z"/><path class="cls-3" d="M81.08,20V.36H86q4.56,0,6.93,2.52t2.37,7.23a13.43,13.43,0,0,1-.6,4.18,8.33,8.33,0,0,1-1.77,3.13,7.66,7.66,0,0,1-2.88,1.95,10.65,10.65,0,0,1-3.93.67Zm2.49-2h2.25A6.34,6.34,0,0,0,91,15.93a8.84,8.84,0,0,0,1.73-5.82A8.47,8.47,0,0,0,91,4.38a6.49,6.49,0,0,0-5.17-2H83.57Z"/><path class="cls-3" d="M99.53,20V.36h11.34v2.1H102V8.64h7.47v2.13H102v7.14h9.15V20Z"/><path class="cls-3" d="M115.34,20V.36h6.15a12.66,12.66,0,0,1,2.77.29,5.73,5.73,0,0,1,2.19.94,4.5,4.5,0,0,1,1.43,1.71,5.87,5.87,0,0,1,.51,2.58,5.43,5.43,0,0,1-1.2,3.69A6.13,6.13,0,0,1,124,11.46L129,20h-2.82l-4.74-8.31h-3.57V20Zm2.49-10.35h3.3a5.72,5.72,0,0,0,3.54-.94,3.4,3.4,0,0,0,1.23-2.87,3,3,0,0,0-1.23-2.73,6.64,6.64,0,0,0-3.54-.78h-3.3Z"/></g></g></g></g></svg>